<svg width="118" height="117" viewBox="0 0 118 117" fill="none" xmlns="http://www.w3.org/2000/svg">
<g clip-path="url(#clip0_27_62)">
<path d="M68.1999 92.8999V64.7699H50.6399V92.8699C46.3499 92.8699 42.2699 92.9099 38.1999 92.7999C37.8499 92.7999 37.3299 91.8499 37.1999 91.2699C35.0699 81.3999 32.9899 71.5099 30.8999 61.6299C30.2399 58.5199 29.6099 55.3999 28.8899 52.3099C28.5999 51.0599 28.8299 50.2799 29.9699 49.4899C39.3499 43.0199 48.6899 36.4799 57.9999 29.9099C59.0699 29.1499 59.7499 29.2299 60.7699 29.9499C70.0799 36.5199 79.4199 43.0599 88.7999 49.5399C89.8599 50.2699 90.1099 50.9899 89.8599 52.1799C87.1499 64.9599 84.4399 77.7499 81.8199 90.5499C81.4399 92.4199 80.7199 93.0699 78.7699 92.9599C75.3299 92.7699 71.8699 92.9099 68.1899 92.9099L68.1999 92.8999Z" fill="black"/>
<path d="M59.39 24.6601C48.3 32.6301 37.38 40.4801 26.45 48.3301C23.29 50.6001 21.19 50.6401 19.6 48.4901C18.09 46.4401 18.89 44.2001 21.91 42.0301C33.36 33.8101 44.8 25.5901 56.25 17.3801C58.77 15.5701 60.02 15.5601 62.55 17.3701C74.24 25.7301 85.93 34.1001 97.61 42.4701C99.93 44.1301 100.49 46.3701 99.16 48.2901C97.83 50.2001 95.46 50.4101 93.16 48.8201C92.99 48.7001 92.82 48.5601 92.65 48.4401C82.17 40.9301 71.7 33.4301 61.22 25.9201C60.65 25.5101 60.06 25.1301 59.37 24.6501L59.39 24.6601Z" fill="black"/>
<path d="M99.18 94.8104C97.57 95.2904 96.68 97.0804 95.91 98.4604C95.22 99.7204 93.89 101.19 93.89 102.66C93.89 103.14 94.38 103.52 94.84 103.38C96.27 102.98 97.32 101.31 98.35 100.31C99.48 99.2104 101 97.8604 101.03 96.2004C101.03 95.2604 100.08 94.5304 99.16 94.7904L99.18 94.8104V94.8104Z" fill="#1D1D1B"/>
<path d="M116.37 62.6001C123.33 34.4901 94.28 6.05013 67.85 1.05013C53.32 -1.68987 38.2 0.910132 25.82 8.99013C15.18 15.9201 4.29995 28.2301 2.94995 41.2601C2.91995 41.5501 3.00995 41.7801 3.12995 41.9801C-5.25005 63.4901 3.87996 90.5301 22.26 104.18C40.49 117.72 70.45 122.45 89.83 108.32C91.47 107.12 90.11 104.75 88.24 105.62C87.54 105.94 86.83 106.26 86.14 106.59C85.79 105.98 85.05 105.58 84.13 106.02C71.22 112.14 53.3 109.04 40.55 104.5C39.11 103.99 38.13 106.28 39.51 106.95C46.3 110.25 53.69 112.18 61.26 112.58C64.42 112.75 67.59 112.63 70.75 112.3C65.94 113.51 60.97 114.06 55.62 113.59C44.75 112.61 35.16 108.56 26.17 102.55C15.64 95.5101 8.44995 86.9501 5.04995 74.6801C2.08995 64.0601 1.93995 52.8701 5.19995 42.3501C5.33995 42.2401 5.47995 42.1201 5.54995 41.9501C6.11995 40.8801 6.66995 39.8201 7.21995 38.7801C3.98995 47.1001 3.03995 56.3301 4.48995 65.1301C7.22995 81.8201 16.65 92.8401 30.49 101.9C32.15 102.99 33.82 100.2 32.05 99.2601C19.76 92.7501 10.01 77.9201 7.93995 64.3701C5.65995 49.4101 11.1 35.3701 20 23.4601C20.77 22.4501 19.16 21.3301 18.28 22.1401C16.82 23.5001 15.47 24.9801 14.22 26.5201C16.26 23.4501 18.54 20.5701 21.29 17.8901C20.66 18.9501 21.67 20.5401 22.93 19.7301C26.16 17.6601 29.29 15.4501 32.65 13.5501C35.04 12.2001 37.59 11.1301 40.04 9.89013C40.44 10.0101 40.9 10.0401 41.43 9.91013C59.24 5.39013 76.98 7.33013 90.85 20.3501C91.39 20.8601 92.05 20.6301 92.38 20.1701C92.26 20.8101 92.61 21.5801 93.47 21.5801C94.97 21.5801 94.97 19.2701 93.47 19.2701C93.04 19.2701 92.75 19.4501 92.57 19.7301C92.6 19.4701 92.54 19.1901 92.29 18.9301C87.66 14.0401 81.82 9.96013 75.4 7.11013C94.16 13.9801 109.77 30.7801 112.02 50.1701C110.63 43.9801 108.03 37.9801 104.25 32.5701C103.28 31.2101 101.15 32.3901 101.97 33.8901C107.01 43.1201 109.39 53.2001 109.73 63.6601C110.08 74.5701 105.84 83.8901 100.03 92.8901C99.43 93.8101 100.81 94.9301 101.56 94.1601C101.91 94.3401 102.34 94.3401 102.71 94.0101C111.09 86.1901 117.23 74.4801 116.4 62.7501C116.4 62.6901 116.37 62.6301 116.35 62.5701L116.37 62.5901V62.6001Z" fill="#1D1D1B"/>
<path d="M34.93 103.28C34.56 104.14 35.05 105 35.91 105.29C36.54 105.5 37.11 105.72 37.76 105.81C38.89 105.95 39.32 104.4 38.63 103.71C38.19 103.25 37.59 102.93 37.05 102.58C36.3 102.07 35.24 102.52 34.9 103.3L34.92 103.28H34.93Z" fill="#1D1D1B"/>
</g>
<defs>
<clipPath id="clip0_27_62">
<rect width="117.41" height="116.89" fill="white"/>
</clipPath>
</defs>
</svg>
