<?xml version="1.0" encoding="utf-8"?>
<!-- Generator: Adobe Illustrator 26.3.1, SVG Export Plug-In . SVG Version: 6.00 Build 0)  -->
<svg version="1.1" id="Layer_1" xmlns="http://www.w3.org/2000/svg" xmlns:xlink="http://www.w3.org/1999/xlink" x="0px" y="0px"
	 viewBox="0 0 1024 220.9" style="enable-background:new 0 0 1024 220.9;" xml:space="preserve">
<style type="text/css">
	.st0{fill:#C5E7F8;}
</style>
<path class="st0" d="M1023.4,17.8c-29.5,9.7-58.9,19.1-88,29.1C900.9,59,867,72.9,833.6,90.4c-36.1,19-68.1,42.7-101.4,63.6
	c-50.1,31.8-102.9,59.6-174.7,57.7c-65.6-1.8-119.6-27.2-174.4-55.3c-34-17.5-68.7-36.1-106.4-50C190.7,74.6,94.4,68.7,0,69.7V72
	c94-1.1,189.9,4.7,275.2,36.3c37.3,13.7,71.8,32.3,105.6,49.7c52.9,27.2,109.6,54.1,176.9,56c73.3,1.9,126.7-26.3,177.3-58.5
	c33-20.8,64.8-44.6,100.5-63.4c60.2-32.2,123.8-51,187.9-71.8V17.8z"/>
<path class="st0" d="M1023.4,18.8c-31.4,10-62.8,19.5-93.8,29.9c-34.6,11.7-68.6,25.3-102,42.6c-36.4,18.8-68.7,41.8-102.1,63
	c-50,31.4-102.7,58.3-173.9,56.6c-65.7-1.6-120.8-27.7-172.2-53.8l-1.9-1c-33.9-17.1-68.3-35.5-105.8-49.2
	C187.2,75.7,92.7,69.4,0,70.2v2.3c92.4-0.8,186.6,5.4,270.3,36.2c37.1,13.5,71.4,31.9,105,48.9l2,1c52,26.4,107.9,52.7,174.7,54.5
	c72.7,1.8,125.9-25.6,176.4-57.4c33.2-20.9,65.3-44.1,101.2-62.7c62-32.5,127.7-51,193.8-71.7V18.8z"/>
<path class="st0" d="M1023.4,19.8C990.1,30,956.8,39.7,924,50.4c-34.7,11.4-68.9,24.3-102.3,41.6c-36.6,18.7-69.2,41.2-102.7,62.2
	c-50,30.8-102.5,57.3-173.1,55.6c-65-1.6-120.1-27.5-171.4-53.1l-2.1-1.1c-33.7-16.9-68-35-105.5-48.6C183.8,76.9,91.1,70.3,0,70.7
	V73c90.8-0.4,183.1,6.1,265.5,36c37,13.4,71.1,31.5,104.7,48.3l2.1,1.1c47.1,23.6,97,47.1,155.7,52.7c6,0.7,12.1,0.9,18.2,1
	c72,1.7,125.1-25.1,175.6-56.4c33.3-21,65.7-43.6,101.9-62c64-32.8,131.7-50.9,199.7-71.6V19.8z"/>
<path class="st0" d="M1023.4,20.9c-3.4,1-6.9,2.1-10.3,3.1c-32,9.1-63.6,17.9-94.8,28.2c-34.8,10.9-69.1,23.6-102.6,40.5
	c-36.8,18.7-69.6,40.9-103.3,61.6c-49.9,30.3-102.3,56.3-172.2,54.7c-64.8-1.7-119.6-27.2-170.7-52.5l-2.5-1.2
	c-33.5-16.6-67.7-34.4-104.9-47.8C180.3,78,89.4,71.1,0,71.2v2.3c89.1-0.2,179.6,6.6,260.7,35.9c36.8,13.3,70.8,30.9,104.1,47.5
	l2.5,1.2c51.6,25.6,106.9,51.6,173.2,53.1c71.4,1.6,124.3-24.7,174.7-55.5c33.5-20.8,66.2-42.8,102.5-61.4
	c66-32.8,135.8-50.6,205.7-71.2V20.9z"/>
<path class="st0" d="M1023.4,21.9c-37.1,10.7-74.4,20.6-111,31.9c-34.6,11.1-69.2,23-102.7,39.6c-37,18.3-70,40.7-103.9,60.9
	c-49.9,29.9-102,55.4-171.4,53.9c-64.5-1.8-119.1-26.8-169.9-51.8l-3.1-1.5c-33.2-16.3-67.2-33.7-104-46.9C177,79.2,87.8,72,0,71.8
	v2.3c87.5,0.1,176.3,7.3,255.9,35.7c36.5,13.1,70.2,30.3,103.3,46.6l3.2,1.5c51.4,25.2,106.1,50.5,172.4,52.4
	c70.8,1.5,123.5-24.3,173.8-54.6c33.7-20.3,66.5-42.5,103.1-60.7c67.9-33,139.9-50.2,211.7-70.8V21.9z"/>
<path class="st0" d="M1023.4,22.9c-39,11-78.3,21-116.8,32.3C871.9,65.9,837.5,78,803.8,94c-37.3,17.8-70.4,40.4-104.6,60.3
	c-49.8,29.3-101.8,54.5-170.5,52.9c-64.3-1.9-118.5-26.4-169.2-51l-3.6-1.7c-33-16.1-66.8-33.1-103.4-46.1
	C173.7,80.4,86.2,72.9,0,72.4v2.3c85.8,0.4,172.9,7.8,251.1,35.5c36.3,12.9,69.8,29.8,102.7,45.9l3.6,1.7
	c51.2,24.8,105.9,49.9,171.7,51.6c70.1,1.7,122.7-23.9,172.9-53.6c34-19.9,66.9-42.3,103.8-60c69.7-33.3,143.9-49.9,217.7-70.3V22.9
	z"/>
<path class="st0" d="M1023.4,24.1c-40.9,11.2-82.1,21.2-122.6,32.7c-34.9,10-69.1,22.3-103,37.8c-37.6,17.4-70.9,39.7-105.2,59.6
	C642.9,183,591.1,207.9,523,206c-64.1-1.7-118-25.9-168.5-50.1l-4.3-2c-32.7-15.8-66.2-32.5-102.6-45.2C170.2,81.4,84.6,73.8,0,73.1
	v2.3c84.2,0.7,169.6,8.3,246.2,35.2c36,12.6,69.3,29.2,101.9,45l4.3,2c51,24.5,105.4,49.1,171,50.7c69.5,1.9,121.9-23.4,172-52.5
	c34.2-19.7,67.3-42.1,104.5-59.4c71.6-33.5,148-49.4,223.7-69.7V24.1z"/>
<path class="st0" d="M1023.4,25.3c-42.8,11.4-86,21.4-128.5,33c-34.9,9.7-69.3,21.3-103.1,37c-37.8,17.2-71.4,38.9-105.9,58.9
	c-49.6,28.4-101.2,52.4-168.7,50.8c-64.1-1.7-117.5-25.5-167.8-49.3l-4.5-2.2c-32.6-15.5-66-32-102.2-44.5
	C166.8,82.6,82.9,74.7,0,73.7V76c82.6,1,166.1,8.7,241.4,34.9c35.8,12.4,69,28.8,101.5,44.3l4.5,2.1c50.8,24.1,105,48.3,170.2,49.9
	c68.9,1.7,121-22.7,171.1-51.5c34.3-19.8,67.7-41.6,105.1-58.7c51.3-23.9,104.6-38,158.7-51.2c23.5-6,47.3-11.8,71-18.1V25.3z"/>
<path class="st0" d="M1023.4,26.5c-44.8,11.5-90,21.4-134.3,33.3c-35,9.4-69.5,20.5-103.3,35.9c-38,17.3-71.9,38.4-106.5,58.2
	c-49.6,27.9-100.9,51.5-167.8,50c-63.8-1.5-119.4-26.2-167.1-48.6l-4.5-2.1c-32.6-15.2-65.9-31.5-102-43.9
	C163.4,83.8,81.3,75.7,0,74.4v2.3c80.9,1.3,162.8,9.2,236.6,34.6c35.8,12.2,68.9,28.5,101.3,43.6l4.5,2.2
	c48.2,22.6,104.4,47.7,169.5,49.1c68.3,1.5,120.2-22.4,170.2-50.6c34.5-19.8,68.1-41,105.7-58c52.7-23.8,107-37.9,162.5-50.7
	c24.3-5.9,48.8-11.7,73.2-18V26.5z"/>
<path class="st0" d="M1023.4,27.8c-46.7,11.6-94,21.3-140.2,33.4c-34.9,9.3-69.6,19.8-103.4,35c-38.2,17.1-72.3,38.2-107.2,57.6
	c-49.4,27.4-100.6,50.6-166.9,49.2c-63.8-1.4-118.9-25.9-166.4-47.8l-5.4-2.5c-32.2-14.9-65.2-30.8-101-43
	C160,84.9,79.6,76.7,0,75.1v2.3c79.3,1.5,159.3,9.7,231.7,34.3c35.4,12,68.2,27.9,100.3,42.7l5.4,2.5c48,22.2,103.9,46.9,168.8,48.4
	c67.7,1.4,119.3-22,169.2-49.8C710,135.9,744,115,781.8,98c54-23.5,109.4-37.7,166.2-50c25.1-5.7,50.4-11.4,75.5-17.7V27.8z"/>
<path class="st0" d="M1023.4,29.1c-48.6,11.7-98.1,21.3-146.1,33.4c-34.9,9.2-69.6,19.4-103.4,34.1c-38.5,16.7-72.7,38-107.8,57
	c-49.3,27-100.2,49.7-166,48.4c-63.2-1.4-118.3-25.4-165.7-47l-5.8-2.7c-32-14.6-64.8-30.2-100.4-42.2C156.7,86,78,77.7,0,75.8v2.3
	c77.6,1.8,155.9,10,226.9,33.9c35.2,11.9,67.8,27.3,99.7,41.9l5.8,2.6c47.8,21.8,103.5,46.2,168.1,47.6
	c67.1,1.3,118.5-21.7,168.3-49c34.8-19,68.9-40.1,106.9-56.8c55.2-23.6,112.1-37,170-49.3c25.9-5.5,51.9-11.2,77.7-17.5V29.1z"/>
<path class="st0" d="M1023.4,30.5c-50.5,11.7-102,21.1-152.1,33.2c-35,8.7-69.5,19.1-103.5,33.3c-38.7,16.2-73.1,37.7-108.4,56.3
	c-49.2,26.5-99.9,48.8-165.1,47.5c-62.9-1.5-117.8-25-165-46.2l-6.8-3c-31.7-14.3-64.1-29.4-99.3-41.2C153.3,87,76.4,78.6,0,76.5
	v2.3c76,2.1,152.5,10.4,222.1,33.5c34.8,11.6,67,26.6,98.6,40.9l6.8,3.1c47.6,21.5,103,45.2,167.4,46.8
	c66.5,1.2,117.7-21.4,167.3-48.2c35-18.7,69.3-40,107.5-56.1c56.5-23.7,114.8-36.4,173.9-48.6c26.6-5.4,53.4-11,79.9-17.2V30.5z"/>
<path class="st0" d="M1023.4,31.9c-52.3,11.8-106,21-158,33c-35.1,8.1-69.6,18.6-103.6,32.4c-39,16-73.6,36.9-109.1,55.7
	c-49.1,25.9-99.6,48-164.1,46.6c-63-1.4-117.4-24.5-164.3-45.4l-7.1-3.1c-31.5-14.1-63.8-28.9-98.7-40.4
	C149.8,88.1,74.7,79.7,0,77.3v2.3c74.4,2.3,149.1,10.7,217.2,33.1c34.6,11.4,66.7,26.1,98,40.2l7.1,3.1
	c47.4,21.1,102.6,44.5,166.7,45.9c65.8,1.4,116.8-20.9,166.3-47.2c35.2-18.7,69.7-39.7,108.2-55.5c57.6-24,117.4-35.9,177.7-48
	c27.4-5.2,54.9-10.7,82.1-16.9V31.9z"/>
<path class="st0" d="M1023.4,33.4c-54.2,11.9-110,20.8-163.9,32.9c-35.1,7.8-69.7,17.6-103.7,31.6c-39.2,15.7-74.1,36.2-109.7,55
	c-49,25.6-99.2,47-163.1,45.7c-58.2-1.2-107.1-19.8-163.6-44.5l-8-3.5c-31.1-13.8-63.1-28.1-97.7-39.4C146.5,89.2,73,80.7,0,78.1
	v2.3c72.7,2.6,145.7,10.9,212.4,32.7c34.2,11.2,66,25.5,97,39.2l8,3.5c57.1,25,106.6,43.7,166,45c65.2,1.2,115.9-20.4,165.3-46.3
	c35.4-18.8,70-39.3,108.8-54.9c58.8-24.2,120.1-35.4,181.6-47.2c28.1-4.9,56.4-10.4,84.2-16.6V33.4z"/>
<path class="st0" d="M1023.4,34.8c-56,11.9-113.9,20.7-169.8,32.6C818.5,75,783.8,84.4,749.8,98c-39.4,15.9-74.5,35.7-110.3,54.4
	c-48.9,25.1-98.8,46.1-162.2,45c-57.9-1.1-106.7-19.3-163-43.6l-8.5-3.7c-30.9-13.4-62.7-27.6-97-38.6C143.1,90.3,71.4,81.7,0,78.9
	v2.3c71.1,2.8,142.4,11.2,207.6,32.3c34,10.9,65.5,25,96.3,38.4l8.5,3.7c56.9,24.5,106.3,43,165.3,44.1
	c64.6,1.1,115-20.2,164.3-45.6c35.6-18.6,70.5-38.6,109.5-54.2C811.7,75.7,874.3,65,937.1,53.5c28.9-4.8,57.8-10.1,86.3-16.3V34.8z"
	/>
<path class="st0" d="M1023.4,36.4c-57.9,12-118,20.2-175.9,32.1c-34.9,7.7-69.8,16.3-103.8,29.7c-39.6,15.5-75,35.6-110.9,53.8
	c-48.7,24.6-98.4,45.2-161.2,44.3c-57.9-1-106.4-18.9-162.3-42.7l-9.2-3.9c-30.7-13.1-62.2-26.9-96.2-37.7
	C139.7,91.3,69.7,82.7,0,79.7V82c69.4,3,139,11.5,202.7,31.8c33.6,10.7,65,24.5,95.5,37.5l9.2,3.9c56.7,24.1,105.7,42.2,164.7,43.2
	c64,1,114.1-19.9,163.3-44.8c35.8-18.2,70.9-38.1,110.1-53.6C806.1,76.5,869.1,66,932.4,55.2c30.5-4.9,61.1-10.2,91.1-16.5V36.4z"/>
<path class="st0" d="M1023.4,37.8c-59.7,12-122,19.8-181.9,31.6c-35,7.3-69.7,16.1-103.8,28.9c-39.9,15.1-75.4,35.4-111.5,53.2
	c-48.5,24.1-98,44.4-160.2,43.5c-57.9-1-105.9-18.5-161.7-41.9l-9.6-4.1c-30.5-12.8-61.8-26.4-95.5-36.9
	C136.3,92.3,68.1,83.8,0,80.6v2.3c67.7,3.2,135.6,11.6,197.9,31.3c33.4,10.5,64.6,24,94.9,36.7l9.6,4c56.4,23.7,105.2,41.5,164,42.4
	c63.4,0.9,113.3-19.6,162.3-44.1c35.9-17.8,71.3-37.9,110.7-53c60.7-22.8,123.5-33.4,187-43.3c32.4-5,65.1-10.3,97-16.8V37.8z"/>
<path class="st0" d="M1023.4,39.3c-61.5,12-126,19.4-188,31.2c-35,6.8-69.7,15.7-103.9,28.1c-40.1,14.7-75.8,34.9-112.2,52.6
	c-48.4,23.6-97.6,43.5-159.2,42.8c-57.5-0.9-105.5-18.2-161-41.1l-10.2-4.2c-30.3-12.5-61.3-25.8-94.8-36.2
	C132.9,93.3,66.4,84.9,0,81.5v2.3c66.1,3.4,132.2,11.7,193.1,30.7c33.2,10.3,64.1,23.5,94.2,35.9l10.2,4.2
	c54.2,22.4,104.8,40.7,163.3,41.5c62.8,0.8,112.4-19.4,161.2-43.3c36.2-17.5,71.6-37.8,111.3-52.4C794.3,78.1,857,68,920.6,58.8
	c34.2-5.3,69-10.6,102.8-17.1V39.3z"/>
<path class="st0" d="M1023.4,40.8c-63.4,12-129.9,19-194,30.6c-35.1,6.4-69.7,15.1-103.9,27.3c-40.4,14.5-76.3,34.1-112.8,52
	c-48.2,23.1-97.1,42.7-158.1,41.9c-57.1-0.8-107-18.5-160.4-40.2l-11-4.5c-29.9-12.2-60.7-25.1-93.8-35.2C129.4,94.4,64.7,86,0,82.5
	v2.3c64.5,3.5,128.9,11.9,188.2,30.2c32.8,10.1,63.5,22.8,93.2,35l11,4.5c54,21.9,104.3,39.8,162.7,40.6
	c62.1,0.7,111.5-19.1,160.1-42.5c36.3-17.7,72-37.4,112-51.8c60.9-22.1,123.8-31.3,187.3-40.3c36.3-5.2,73.1-10.3,108.8-17V40.8z"/>
<path class="st0" d="M1023.4,42.5c-65.2,12-133.9,18.4-200,30c-35.1,6.1-69.7,14.2-103.9,26.5c-40.7,14.3-76.8,33.6-113.5,51.2
	c-48.1,22.8-96.7,42-157.1,41.3c-57.3-0.7-106.7-18-159.7-39.2l-11.8-4.7c-29.6-11.9-60.1-24.4-92.9-34.3C126.1,95.4,63,87.2,0,83.6
	v2.3c62.7,3.7,125.4,11.8,183.4,29.4c32.4,9.8,62.8,22.2,92.3,34.1l11.8,4.7c53.7,21.4,103.7,39,162,39.7
	c61.5,0.7,110.6-18.7,159.1-41.8c36.5-17.6,72.4-36.9,112.6-51.1c60.9-22,124.1-30.3,187.4-39c38.5-4.8,77.2-10.1,114.7-17.1V42.5z"
	/>
<path class="st0" d="M1023.4,44.3c-66.9,12-137.9,17.8-206.1,29.1c-35,6.1-69.8,13.6-103.9,25.6c-40.8,14.3-77.2,33.2-114.1,50.6
	c-47.9,22.3-96.2,41.2-156,40.6c-56.7-0.5-106.1-17.5-159.1-38.3l-11-4.3c-29.8-11.8-60.5-24.2-93.5-34.1
	C122.7,96.5,61.4,88.4,0,84.6v2.2c61.1,3.8,122.1,11.8,178.6,28.7c32.7,9.8,63.2,22.1,92.9,33.8l11,4.3
	c53.7,21,103.5,38.2,161.4,38.7c60.9,0.5,109.7-18.5,158-41.2c36.7-17.4,72.9-36.2,113.3-50.5c60.9-21.4,124.2-29.2,187.5-37.4
	c40.6-4.7,81.4-9.9,120.7-17V44.3z"/>
<path class="st0" d="M1023.4,45.8c-68.7,12-141.9,17.1-212.2,28.3c-34.9,6-69.7,13.2-103.9,24.8c-41.1,14-77.7,33.1-114.8,50.1
	c-47.7,21.9-95.7,40.4-154.9,40c-56.6-0.5-105.7-17.1-158.5-37.4l-12.1-4.7c-29.4-11.5-59.8-23.5-92.3-33
	C119.3,97.5,59.7,89.5,0,85.6v2.3c59.4,3.9,118.7,11.8,173.7,28.1c32.2,9.5,62.4,21.4,91.7,32.8l12.1,4.7
	c53.4,20.5,103.2,37.3,160.7,37.8c60.3,0.4,108.8-18.3,156.9-40.5c36.9-17,73.3-36,113.9-49.9C770.2,80.3,833.2,72.2,896.7,65
	c42.6-4.7,85.5-9.6,126.7-16.9V45.8z"/>
<path class="st0" d="M1023.4,47.4c-70.4,12-145.8,16.5-218.3,27.4c-34.9,5.6-69.6,12.9-103.8,24.1c-41.3,13.5-78.1,32.8-115.4,49.5
	c-47.6,21.4-95.2,39.6-153.9,39.3c-56.4-0.3-105.3-16.5-157.9-36.4l-12.5-4.8c-29.2-11.1-59.4-22.9-91.6-32.2
	C115.8,98.5,58,90.7,0,86.6v2.3c57.8,4,115.3,11.8,168.9,27.4c32,9.3,62,21,91.1,32.1l12.6,4.8c53.2,20,102.6,36.5,160.1,36.8
	c59.7,0.3,107.8-18.1,155.8-39.8c37.1-16.7,73.7-35.8,114.5-49.3c61.2-20,124.2-27.8,187.7-34.3c44.5-4.9,89.6-9.4,132.7-16.7V47.4z
	"/>
<path class="st0" d="M1023.4,49.1C951.2,61,873.6,64.8,799,75.6c-35,5-69.5,12.6-103.8,23.3c-41.6,13.3-78.6,32.2-116.1,48.9
	c-47.4,21-94.8,38.8-152.9,38.7c-56.4-0.3-104.9-16.1-157.2-35.5l-13.2-4.9c-29-10.9-58.8-22.3-90.8-31.4
	C112.5,99.5,56.4,91.8,0,87.7V90c56.1,4.1,112,11.8,164.1,26.7c31.7,9.1,61.4,20.4,90.3,31.2l13.2,4.9
	c52.9,19.6,102,35.7,159.5,35.9c59.1,0.1,106.9-17.9,154.7-39.1C619,133,655.8,114,696.9,100.8C758.2,81.2,821.2,74,884.7,68
	c46.5-4.8,93.9-9,138.7-16.3V49.1z"/>
<path class="st0" d="M1023.4,50.9c-73.9,11.9-153.8,15-230.5,25.5c-35,4.7-69.6,11.8-103.8,22.5c-41.9,13.1-79,31.5-116.8,48.3
	c-47.2,20.7-94.2,38.1-151.7,38.1c-56.2-0.1-104.5-15.7-156.6-34.6l-14.2-5.2c-28.6-10.5-58.1-21.6-89.6-30.4
	C109.2,100.5,54.7,93,0,88.8v2.3c54.5,4.2,108.7,11.7,159.2,26c31.3,8.8,60.6,19.8,89.1,30.3l14.2,5.2
	c52.7,19.1,101.7,34.9,158.9,35c58.5,0,106-17.7,153.6-38.5c37.5-16.7,74.5-35.2,115.9-48.2c61.3-19.4,124.4-25.8,187.8-31.6
	c48.9-4.1,98.1-8.6,144.8-16V50.9z"/>
<path class="st0" d="M1023.4,52.7c-75.6,11.9-157.7,14.2-236.6,24.4c-34.9,4.5-69.6,11-103.7,21.7c-42.1,12.9-79.5,31-117.4,47.6
	c-46.9,20.2-93.7,37.5-150.6,37.5c-56.1,0-104.2-15.1-156-33.6l-15.6-5.6c-28.1-10.2-57.2-20.8-88.1-29.4
	C105.8,101.5,53.1,94.1,0,89.9v2.2c52.7,4.2,105.2,11.5,154.4,25.3c30.7,8.5,59.6,19.1,87.6,29.2l15.6,5.6
	c52.4,18.6,101.1,34,158.2,34c57.9,0,105-17.5,152.4-37.9c37.7-16.5,74.9-34.7,116.5-47.4C745.9,81.5,809.2,76,872.5,70.5
	c51.1-3.7,102.4-8.1,150.9-15.6V52.7z"/>
<path class="st0" d="M1023.4,54.4c-77.2,12.1-161.7,13.3-242.8,23.2c-34.8,4.7-69.5,10.5-103.6,21c-42.3,12.8-79.9,30.8-118.1,47.1
	c-46.7,19.8-93.1,36.7-149.4,36.9c-56,0.2-103.9-14.6-155.4-32.6l-16.6-5.8c-27.8-9.8-56.4-20.1-86.9-28.4
	C102.5,102.4,51.4,95.2,0,91v2.3c51.1,4.2,102,11.4,149.5,24.5c30.3,8.3,58.8,18.5,86.4,28.3l16.6,5.8
	c52.2,18.2,100.6,33.2,157.6,33c57.3-0.2,104.1-17.3,151.2-37.4c38-16.3,75.3-34.1,117.2-46.9C739.9,82,803.2,76.7,866.5,71.8
	c53.2-3.7,106.8-7.4,157-15.1V54.4z"/>
<path class="st0" d="M1023.4,56c-78.9,12.1-165.6,12.5-249,22.1c-34.8,4.4-69.4,10.2-103.5,20.2c-42.6,12.5-80.4,30.6-118.9,46.5
	c-46.5,19.4-92.5,36-148.2,36.3c-55.8,0.3-105.4-14.7-154.8-31.6l-16.9-5.8c-27.6-9.6-56.1-19.6-86.5-27.8
	C99.1,103.4,49.7,96.4,0,92.1v2.3c49.4,4.3,98.5,11.3,144.7,23.8c30.1,8.1,58.5,18.1,86,27.6l16.9,5.8c50,17.1,100.2,32.3,157,31.9
	c56.7-0.4,103.1-17.1,150-36.8c38.3-15.9,75.8-33.9,117.9-46.4C734,82.7,797,77,860.4,73c55.2-3.7,111.2-6.7,163-14.6V56z"/>
<path class="st0" d="M1023.4,57.8c-80.5,12-169.6,11.6-255.1,20.9c-34.8,3.9-69.3,9.9-103.4,19.5c-42.9,12.1-80.8,30.2-119.6,46
	c-46.2,19-92,35.2-147.1,35.7c-55.7,0.4-105.1-14.2-154.2-30.6l-18.3-6.2c-27.1-9.2-55.1-18.8-84.9-26.7C95.7,104.3,48,97.5,0,93.2
	v2.3c47.8,4.3,95.2,11.1,139.9,23c29.6,7.8,57.4,17.4,84.4,26.6c6.2,2.1,12.2,4.1,18.3,6.2c49.8,16.6,99.7,31.5,156.4,30.9
	c56-0.5,102.2-16.9,148.7-36.2c38.5-15.7,76.2-33.9,118.6-45.9c61.5-17.3,124.5-22.5,187.9-25.8c57.3-3.7,115.6-5.9,169.1-14V57.8z"
	/>
<path class="st0" d="M1023.4,59.7c-82.2,12-173.5,10.6-261.3,19.5c-34.8,3.4-69.2,9.6-103.4,18.7c-43.1,11.9-81.4,29.5-120.3,45.5
	c-46,18.6-91.4,34.5-145.9,35.2c-55.8,0.6-104.7-13.6-153.7-29.6l-19.5-6.4c-26.7-8.9-54.3-18.1-83.6-25.7
	C92.4,105.3,46.4,98.6,0,94.3v2.3c46.1,4.3,91.9,10.9,135.1,22.3c29.1,7.6,56.5,16.8,83.1,25.6l19.5,6.4
	c49.5,16.2,99.1,30.6,155.8,29.9c55.5-0.6,101.2-16.7,147.5-35.6c38.7-15.8,76.7-33.5,119.3-45.3c61.5-17,124.6-21.4,187.9-24.7
	c59.7-2.8,119.8-5.4,175.2-13.1V59.7z"/>
<path class="st0" d="M1023.4,61.5C939.8,73.7,846,71.1,756,79.7c-34.8,3.2-69.2,8.7-103.3,18c-43.3,11.6-81.9,29-121,44.8
	c-45.7,18.4-90.7,34-144.6,34.7c-55.8,0.8-104.5-13.1-153.1-28.6l-20.9-6.8c-26.2-8.5-53.3-17.4-82-24.7
	C89.1,106.2,44.7,99.7,0,95.4v2.3c44.5,4.3,88.6,10.8,130.2,21.5c28.5,7.3,55.4,16.1,81.5,24.6c7,2.3,14,4.5,20.9,6.8
	c49.1,15.7,98.4,29.8,155.2,28.9c54.8-0.8,100.2-16.5,146.3-35.1c38.9-15.8,77.2-33.1,120.1-44.7C715.7,82.8,778.8,79.2,842,76.3
	c62.1-2.1,124.2-4.7,181.5-12.4V61.5z"/>
<path class="st0" d="M1023.4,63.2l-2.6,0.3c-84.4,12.1-179.6,8.5-271,16.6c-34.7,3.2-69.1,8.1-103.2,17.3
	c-43.5,11.6-82.5,28.6-121.8,44.2c-45.4,18-90.1,33.4-143.5,34.2c-55.7,0.9-104.2-12.6-152.5-27.6c-7.3-2.3-14.7-4.7-22.2-7
	c-25.8-8.2-52.4-16.7-80.5-23.8C85.7,107.2,43,100.8,0,96.6v2.2c42.8,4.2,85.2,10.6,125.4,20.8c27.9,7,54.5,15.5,80.1,23.6
	c7.5,2.4,14.9,4.7,22.2,7c48.9,15.2,97.9,28.9,154.6,27.9c54.2-0.9,99.3-16.5,145-34.6c39.1-15.6,77.7-32.7,120.8-44.1
	c61.4-16.6,124.7-19.5,187.7-22.1c63.1-1.9,126.4-3.5,184.2-11.2l3.4-0.4V63.2z"/>
<path class="st0" d="M1023.4,65c-0.8,0.1-1.7,0.3-2.5,0.4l-6.6,0.8C930,77.2,834.9,72.9,743.6,80.4c-34.5,3.2-69,7.6-103,16.6
	c-43.8,11.4-83,28.4-122.5,43.8c-45.1,17.6-89.5,32.7-142.2,33.7c-55.7,1.1-103.9-12-151.9-26.5c-7.6-2.3-15.2-4.7-22.8-7
	c-25.5-7.9-51.9-16.1-79.7-23C82.4,108.2,41.4,102,0,97.8v2.2c41.1,4.2,81.9,10.3,120.6,20c27.6,6.8,53.9,15,79.3,22.9
	c7.7,2.4,15.3,4.7,22.9,7.1c48.7,14.7,97.4,28,154,26.8c53.6-1.1,98.3-16.3,143.7-34.1c39.3-15.4,78.3-32.3,121.6-43.6
	c61.6-15.8,124.6-19,187.7-20.7c62.9-1.7,126.3-2.2,183.9-9.6l6.6-0.8c1.1-0.1,2.2-0.3,3.3-0.5V65z"/>
<path class="st0" d="M1023.4,66.7c-2.8,0.4-5.6,0.8-8.4,1.1l-7.1,0.9c-84.3,10-179.3,5.1-270.6,11.9c-34.5,2.9-68.9,7.5-102.9,15.9
	c-44,10.9-83.6,28.2-123.3,43.3c-44.8,17.2-88.8,32-140.9,33.2c-55.5,1.3-105.4-11.9-151.4-25.5c-8-2.4-16.2-4.9-24.4-7.3
	c-25-7.6-50.8-15.4-78-22C79,109.1,39.7,103.1,0,99v2.2c39.5,4.1,78.6,10.1,115.7,19.2c27,6.5,52.7,14.3,77.6,21.9
	c8.2,2.5,16.3,4.9,24.4,7.3c46.4,13.7,96.9,27.1,153.4,25.8c52.9-1.2,97.3-16.2,142.4-33.6c39.5-15.1,78.8-32.2,122.4-43.1
	c61.5-15.1,124.4-18.4,187.5-19.3c62.7-1.7,126.3-1.1,183.7-8l7.1-0.9c3-0.4,6.1-0.8,9.2-1.2V66.7z"/>
<path class="st0" d="M1023.4,68.6c-4.8,0.7-9.6,1.3-14.3,1.8l-7.5,0.9c-84.4,8.9-179.1,3.4-270.5,9.6c-34.5,2.4-68.8,7.2-102.8,15.1
	c-44.3,10.7-84.2,27.6-124.1,42.9c-44.5,16.8-88.1,31.3-139.6,32.7c-55.6,1.5-105.1-11.4-150.8-24.5c-8.6-2.5-17.2-5-26-7.6
	c-24.4-7.2-49.7-14.7-76.2-21C75.7,110,38,104.2,0,100.1v2.2c37.8,4,75.2,9.8,110.9,18.4c26.4,6.2,51.5,13.7,75.9,20.9
	c8.7,2.6,17.4,5.1,26,7.6c46.2,13.3,96.3,26.2,152.8,24.7c52.3-1.4,96.3-16,141.1-33c39.7-15.1,79.3-32,123.1-42.7
	c61.6-14.7,124.5-17.4,187.5-18.1c62.7-0.8,125.9-0.5,183.4-6.2l7.6-0.9c5-0.6,10-1.2,15.1-1.9V68.6z"/>
<path class="st0" d="M1023.4,70.5c-6.8,1-13.6,1.8-20.3,2.5l-8,0.8C911,82,816.3,75.6,724.9,81.3c-34.5,2-68.7,6.7-102.7,14.4
	c-44.6,10.5-84.8,27.1-124.9,42.3c-44.2,16.6-87.4,30.7-138.3,32.2c-55.6,1.7-104.9-10.7-150.3-23.4c-9.1-2.6-18.3-5.2-27.6-7.9
	c-23.8-6.9-48.5-14-74.3-19.9C72.3,110.8,36.3,105.2,0,101.3v2.3c36.2,4,71.9,9.5,106.1,17.6c25.7,5.9,50.3,13,74,19.8
	c9.3,2.7,18.6,5.3,27.7,7.9c45.9,12.8,95.7,25.4,152.2,23.6c51.7-1.6,95.2-15.8,139.7-32.6c39.9-15.2,79.9-31.8,123.9-42.2
	c61.6-14.5,124.5-16.4,187.4-16.9c62.8,0.1,125.6,0.3,183.1-4.6c2.7-0.2,5.4-0.4,8-0.7c7-0.7,14-1.5,21.2-2.5V70.5z"/>
<path class="st0" d="M1023.4,72.3c-8.8,1.3-17.6,2.3-26.2,3.1l-8.7,0.6c-83.9,7.5-178.5,0.5-269.9,5.5
	c-34.4,1.8-68.6,5.9-102.5,13.7c-44.8,10.2-85.5,26.6-125.8,41.7c-43.8,16.3-86.7,30.2-137,31.8c-55.6,1.9-104.6-10.1-149.7-22.3
	c-9.7-2.7-19.5-5.4-29.4-8.2c-23.2-6.5-47.3-13.2-72.4-18.9C69.1,111.8,34.7,106.4,0,102.5v2.3c34.5,3.9,68.6,9.2,101.3,16.7
	c25,5.7,48.9,12.4,72.1,18.8c9.9,2.8,19.8,5.5,29.5,8.2c45.5,12.4,95.2,24.5,151.7,22.6c51-1.7,94.2-15.7,138.4-32.2
	c40.1-15,80.4-31.4,124.8-41.6C679.2,83,742.2,81.9,804.9,81.6c62.7,0.5,125.5,1.4,182.8-3.1l8.7-0.6c8.9-0.8,17.9-1.9,27.1-3.2
	V72.3z"/>
<path class="st0" d="M1023.4,73.9c-10.9,1.6-21.7,2.8-32.3,3.7l-9.1,0.6c-83.9,6.5-178.3-1.1-269.6,3.4c-34.3,2-68.5,5.3-102.3,13.1
	C565,104.9,524,121.1,483.5,136c-43.5,15.9-86,29.6-135.7,31.4c-50.2,1.8-94.4-6.9-149.1-21.3c-10-2.7-20.1-5.4-30.4-8.2
	c-22.9-6.2-46.5-12.7-71.2-18.1c-31.4-7.1-64.1-12.1-97.1-15.9v2.3c32.8,3.7,65.3,8.8,96.5,15.8c24.6,5.4,48.1,11.8,70.9,18.1
	c10.3,2.8,20.4,5.5,30.5,8.2c55.3,14.6,100.1,23.4,151.1,21.5c50.4-1.8,93.2-15.7,137-31.8c40.3-14.9,81-31,125.6-41.1
	c61.5-14,124.4-14.7,187.1-14.5c62.6,0.7,125.4,2.7,182.5-1.6l9.1-0.6c10.9-0.9,22-2.2,33.2-3.8V73.9z"/>
<path class="st0" d="M1023.4,75.6c-12.9,1.9-25.7,3.3-38.2,4.2l-9.8,0.7c-83.8,5.5-178-2.7-269.3,1.2C672,83.5,637.8,86.7,604,94.1
	c-45.5,9.8-86.7,26.2-127.4,40.8c-43.2,15.5-85.3,29-134.3,31c-50,2.1-95.7-6.7-148.6-20.2c-10.7-2.8-21.4-5.6-32.4-8.5
	c-22.2-5.9-45.2-11.9-69.1-17.1c-29.8-6.6-60.9-11.3-92.2-15v2.3c31.2,3.6,62.1,8.3,91.6,14.8c23.8,5.2,46.7,11.2,68.8,17.1
	c10.9,2.9,21.8,5.7,32.4,8.5c53.3,13.6,99.7,22.5,150.5,20.4c49.7-2,92.1-15.6,135.6-31.3c40.5-14.6,81.4-30.9,126.4-40.7
	C667,83.2,729.7,82,792.4,83.1c62.3,0.7,125.3,3.7,182.2-0.2l9.7-0.7c12.8-0.9,25.9-2.3,39.1-4.3V75.6z"/>
<path class="st0" d="M1023.4,77.3c-15.1,2.2-30,3.8-44.5,4.7l-10,0.7c-83.7,4.6-177.8-4.3-269.1-0.9c-34.1,1.5-68.2,4.9-102,11.8
	c-46,9.5-87.3,25.8-128.3,40.5c-42.8,15.1-84.5,28.3-132.9,30.5c-50,2.3-95.5-6.1-148-19.1c-11.3-2.9-22.4-5.7-34.2-8.7
	c-21.6-5.6-43.8-11.2-67.1-16.2c-28.3-6.1-57.7-10.5-87.4-14v2.2c29.5,3.5,58.7,7.9,86.8,13.9c23.1,4.9,45.3,10.6,66.8,16.1
	c11.8,3,23,5.9,34.3,8.7c53.1,13.1,99.2,21.6,149.9,19.3c49.1-2.2,93-16.2,134.1-30.8c40.8-14.5,81.9-30.9,127.3-40.3
	c61.5-12.6,124.2-13.5,186.8-11.8C848.4,85,911,88.1,968,85.2l10-0.7c14.8-0.9,30-2.5,45.4-4.8V77.3z"/>
<path class="st0" d="M1023.4,79c-16.9,2.5-33.7,4.2-50.3,5.2c-3.6,0.2-7.1,0.6-10.8,0.6c-83.5,3.9-177.6-5.8-268.7-3
	c-34.1,1-68,4.5-101.8,11.1c-46.4,9.3-87.9,25.4-129.2,40c-42.4,14.9-83.7,27.7-131.5,30.1c-50.1,2.5-95.4-5.5-147.5-18
	c-12-2.9-23.8-5.9-36.4-9c-20.8-5.2-42.3-10.5-64.7-15.1C55.7,115.4,28,111.2,0,107.8v2.2c27.9,3.4,55.5,7.5,82,13
	c22.3,4.6,43.7,9.9,64.5,15.1c12.6,3.1,24.5,6,36.5,9c52.8,12.5,98.5,20.7,149.4,18.2c48.5-2.3,91.9-16,132.7-30.4
	c41.1-14.6,82.4-30.6,128.2-39.9c61.5-12.3,124.2-12.5,186.6-10.7c62.3,2.1,124.6,5,181.5,2.9c3.7,0,7.2-0.3,10.8-0.5
	c16.6-0.9,33.8-2.6,51.2-5.3V79z"/>
<path class="st0" d="M1023.4,80.8c-19,2.9-37.9,4.7-56.4,5.7l-11.3,0.3c-83.2,3.4-177.2-7.1-268.3-4.8c-34.1,0.7-67.9,4-101.7,10.4
	c-46.8,9.1-88.6,25-130.1,39.5c-42,14.7-82.9,27.2-130,29.7c-50.1,2.7-95.1-5-147-16.9c-12.6-3-25.2-6-38.5-9.2
	c-20.1-4.9-40.9-9.8-62.4-14.2c-25.2-5.1-51.4-9-77.7-12.2v2.2c26.2,3.2,52.2,7,77.2,12.1c21.4,4.3,42.1,9.2,62.2,14.1
	c13.3,3.2,25.9,6.2,38.6,9.2c52.3,12.1,97.9,19.8,148.8,17c47.8-2.6,90.8-15.8,131.2-30c41.3-14.5,82.9-30.4,129.1-39.4
	c122-23.4,252.9-0.7,367.5-5.3l11.3-0.3c18.6-0.9,37.9-2.7,57.4-5.7V80.8z"/>
<path class="st0" d="M1023.4,82.4c-21,3.3-41.8,5.2-62.4,5.9l-12,0.3c-83.1,2.4-176.8-8.4-267.9-6.7c-34,0.7-67.8,3.3-101.4,9.9
	c-47.2,8.8-89.2,24.6-131.1,39c-41.7,14.3-82.1,26.8-128.6,29.3c-50.3,2.9-95.1-4.4-146.4-15.8c-13.3-3.1-26.5-6.1-40.5-9.3
	c-19.4-4.5-39.5-9.2-60.2-13.2l-12.5-2.4c-19.7-3.7-40-6.5-60.4-9v2.4c24.6,3,48.9,6.6,72.4,11.2c20.6,4,40.7,8.7,60,13.2
	c14,3.2,27.3,6.3,40.7,9.4c51.8,11.5,97.2,18.8,148.2,15.9c47.1-2.6,89.7-15.7,129.7-29.6c41.6-14.4,83.4-30.1,130.1-38.9
	c61.4-12,124-10.8,186.2-8.5c62.1,2.8,124.3,7.1,180.8,5.7l12-0.3c20.9-0.7,42.1-2.6,63.4-5.9V82.4z"/>
<path class="st0" d="M1023.4,84.1c-23.1,3.7-46.1,5.7-68.7,6.1l-12.3,0.3c-83,1.5-176.5-9.9-267.6-8.7c-33.8,0.9-67.6,2.8-101.3,9.2
	c-47.6,8.6-89.9,24.4-132,38.7c-41.3,13.9-81.3,26.2-127.1,29c-53.3,3.3-101.6-5.2-145.9-14.7c-14-3.1-28-6.2-42.8-9.5
	c-18.6-4.1-37.9-8.5-57.7-12.3l-8.1-1.5c-19.5-3.6-39.8-6-59.9-8.5v1.9c22.9,2.9,45.6,6.2,67.6,10.4c19.8,3.7,39,8.1,57.5,12.2
	c14.8,3.3,28.9,6.4,43,9.6c44.5,9.4,93.6,18.1,147.7,14.8c46.4-2.8,88.6-15.8,128.3-29.3c41.8-14.2,83.9-29.9,130.9-38.5
	c61.6-11.4,124-10.2,186.2-7.3c61.9,2.9,124,8.1,180.3,7.1l12.3-0.3c23-0.4,46.3-2.4,69.8-6.1V84.1z"/>
<path class="st0" d="M1023.4,85.7c-25.2,4.1-50.3,6.1-74.9,6.4l-12.8,0.3C852.8,93,759.5,81,668.5,81.6
	c-33.8,0.6-67.4,2.7-101.1,8.6c-48,8.3-90.6,24.2-132.9,38.4c-40.8,13.6-80.4,25.6-125.6,28.6c-50,3.3-95.5-3.7-137-11.9l-8.3-1.7
	c-14.8-3.2-29.6-6.3-45.3-9.7c-17.8-3.8-36.2-7.8-55.1-11.3l-3.4-0.6c-19.4-3.6-39.7-6-59.8-8.6v2.3c20,2.5,40.1,4.9,59.4,8.5
	l3.4,0.6c18.8,3.5,37.2,7.4,54.9,11.3c15.7,3.4,30.5,6.5,45.4,9.7l8.4,1.7c42,8.3,88,15.3,138.8,12c45.8-3,87.4-15.7,126.7-28.9
	c42.1-14.1,84.5-29.9,131.9-38.2c61.7-10.5,123.8-9.8,186-6c61.8,3.1,123.7,8.7,180,8.4l12.8-0.3c24.9-0.3,50.4-2.3,75.9-6.5V85.7z"
	/>
<path class="st0" d="M1023.4,87.3c-27.2,4.5-54.5,6.5-81,6.8c-4.5,0-8.9,0.3-13.4,0.2C846.3,94,753.2,81.3,662.3,81.5
	c-33.8,0.2-67.1,2.4-101,8c-48.3,8.2-91.2,23.8-133.9,38c-40.4,13.3-79.5,25-124,28.2c-53.5,3.8-101.3-3.9-144.8-12.4l-2.7-0.5
	c-14.7-3-29.4-6.1-45-9.3c-15.9-3.2-32.3-6.4-49.1-9.8l-3.4-0.6c-18.9-3.5-38.7-5.9-58.4-8.4v2.3c19.5,2.5,39.2,4.8,58,8.3
	c17.8,3.2,35.5,6.8,52.4,10.4c15.6,3.2,30.3,6.3,45.1,9.3l2.7,0.5c43.9,8.6,92.3,16.3,146.6,12.5c45.1-3.2,86.2-15.6,125.1-28.4
	c42.4-14.2,85.1-29.8,132.8-37.9c61.8-10.3,123.8-8.9,185.8-4.9c61.8,3.9,123.3,9.3,179.5,9.8c4.6,0.2,9,0,13.5-0.1
	c26.9-0.2,54.4-2.2,82.1-6.8V87.3z"/>
<path class="st0" d="M1023.4,88.9c-29.4,4.7-58.5,6.9-87.1,7c-4.6,0.2-9.4-0.1-14.1-0.2C839.9,95.3,746.7,81.7,656,81.4
	c-33.7-0.3-66.9,2.1-100.8,7.3c-48.7,8-91.9,23.4-134.9,37.6c-40,13.2-78.6,24.5-122.4,27.8c-53.7,4-101.1-3.2-144.3-11.2
	c-16.4-3.3-33.1-6.5-50.7-10c-16-3.1-32.6-6.2-49.3-9.5c-17.4-3.1-35.5-5.2-53.5-7.5v2.3c17.9,2.3,35.9,4.4,53.2,7.5
	c16.8,3.2,33.3,6.4,49.2,9.4c17.6,3.5,34.2,6.8,50.8,10.1c43.5,8.1,91.6,15.4,146,11.3c44.4-3.4,85-15.4,123.5-28.1
	c42.7-14.1,85.6-29.6,133.8-37.5C618.3,80.8,680.1,83,742,87c61.7,4.6,123.1,10.1,179.1,11.1l14.1,0.2c28.9-0.2,58.4-2.3,88.2-7.1
	V88.9z"/>
<path class="st0" d="M1023.4,90.4c-31.4,5.3-62.9,7.4-93.3,7.2l-14.6-0.3c-82.3-1.4-175.1-15.1-265.8-16
	c-33.6-0.5-66.8,1.4-100.7,6.7c-49.1,7.7-92.6,23.1-135.9,37.2c-39.5,12.9-77.7,24.1-120.9,27.5c-53.7,4.3-100.9-2.5-143.8-10.1
	c-17.4-3.3-34.8-6.6-53.3-10.1c-15-2.8-30.6-5.7-46.5-8.6c-15.8-2.7-32.3-4.6-48.7-6.7v2.3c16.3,2.1,32.7,3.9,48.4,6.7
	c15.8,2.9,31.4,5.8,46.4,8.6c18.5,3.5,36,6.9,53.4,10.2c43.3,7.7,91,14.5,145.4,10.1c43.7-3.5,83.8-15.3,121.8-27.8
	c43-14,86.3-29.4,134.8-37.1c61.9-9.9,123.6-7.1,185.4-2.8c61.6,4.8,122.9,11.2,178.7,12.4L929,100c30.8,0.2,62.6-1.8,94.4-7.2V90.4
	z"/>
<path class="st0" d="M1023.4,91.9c-33.5,5.9-67.1,7.9-99.5,7.4l-15.1-0.4c-82.1-2.3-174.7-16.5-265.4-18
	c-33.4-0.3-66.8,0.9-100.5,6.2c-49.5,7.6-93.4,22.8-136.9,36.8c-39.1,12.5-76.7,23.6-119.2,27.2c-54,4.6-102.8-2.1-143.2-8.9
	c-18.3-3.3-36.8-6.7-56.4-10.3c-14-2.5-28.5-5-43.2-7.7c-14.3-2.4-29.2-4-43.9-5.9v2.3c14.6,1.9,29.4,3.5,43.6,5.9
	c14.7,2.6,29.1,5.2,43.1,7.6c19.6,3.6,38.1,7,56.5,10.3c40.8,6.8,90.2,13.6,144.9,9c43-3.6,82.6-15.3,120.1-27.4
	c43.3-14,86.9-29.2,135.9-36.7c62-9.7,123.6-6.4,185.2-1.8c61.4,4.9,122.6,12.2,178.2,13.7l15.2,0.4c32.8,0.6,66.8-1.4,100.7-7.3
	V91.9z"/>
<path class="st0" d="M1023.4,93.3c-35.6,6.4-71.3,8.5-105.7,7.5l-15.7-0.4c-82-3.1-174.4-17.9-265-19.9
	c-33.2-0.3-66.6,0.6-100.4,5.6c-49.9,7.3-94.1,22.7-138,36.6C360.2,135,323,146,281.2,149.6c-54.2,4.9-102.6-1.4-142.7-7.7
	c-19.3-3.4-38.8-6.8-59.5-10.4c-13-2.2-26.4-4.5-39.9-6.8c-12.7-2.1-26-3.5-39.1-5.2v2.3c13,1.6,26.2,3.1,38.8,5.1
	c13.5,2.3,26.9,4.6,39.8,6.8c20.7,3.6,40.3,7,59.7,10.4c40.5,6.4,89.4,12.8,144.3,7.8c42.3-3.7,81.4-15.3,118.5-27.1
	C444.7,111,488.6,95.7,538,88.4c62.1-9,123.4-6,185-0.6c61.2,5.1,122.3,12.8,177.9,15l15.7,0.4c34.8,1,70.9-1,106.9-7.5V93.3z"/>
<path class="st0" d="M1023.4,94.7c-37.6,7-75.5,9.1-111.9,7.7l-16.3-0.5c-81.8-3.8-174-19.3-264.5-21.7
	c-33.1-0.6-66.5,0.4-100.2,5.1c-50.3,7.1-94.9,22.4-139,36.4c-38.1,11.9-74.8,22.6-115.8,26.5c-43.2,4.1-85.9,1.9-142.2-6.6
	c-20.4-3.4-41.1-6.8-63-10.4c-11.9-1.9-24-3.9-36.3-5.9c-11.2-1.8-22.8-3-34.2-4.4v2.3c11.4,1.4,22.9,2.7,34,4.4
	c12.3,2,24.4,4,36.2,5.9c21.9,3.6,42.7,7.1,63.2,10.5c56.9,8.6,100,10.8,143.8,6.6c41.6-3.9,80.1-15.2,116.7-26.7
	c43.9-13.9,88.2-29.2,137.9-36.2c62.3-8.4,123.4-5.4,184.9,0.5c61.1,5.6,121.9,13.3,177.3,16.2c5.5,0.5,10.9,0.4,16.4,0.6
	c36.7,1.4,75-0.6,113-7.6V94.7z"/>
<path class="st0" d="M1023.4,96.1c-39.8,7.5-80,9.5-118.3,7.9c-5.5,0-11.2-0.4-16.8-0.8c-81.4-4-173.6-20.4-263.9-23.2
	c-33-1-66.5,0.1-100.1,4.5c-50.8,6.9-95.7,22.1-140.2,36c-37.6,11.8-73.7,22.1-114.1,26.2c-43.3,4.4-85.8,2.5-141.6-5.4
	c-21.7-3.4-43.7-6.9-67.1-10.5c-10.5-1.6-21.1-3.3-32-5c-9.6-1.5-19.6-2.5-29.4-3.7v2.3c9.8,1.2,19.7,2.2,29.2,3.7
	c10.8,1.7,21.5,3.3,31.9,5c23.4,3.7,45.5,7.2,67.2,10.6c56.4,8,99.3,9.9,143.2,5.4c40.8-4.1,78.8-15.1,114.9-26.4
	c44.2-13.9,88.9-29,139.1-35.9c62.2-8.2,123.3-4.5,184.7,1.5c61.1,6.4,121.6,14,176.9,17.4c5.6,0.3,11.3,0.9,16.8,0.9
	c38.7,1.6,79.2-0.3,119.4-7.9V96.1z"/>
<path class="st0" d="M1023.4,97.5c-41.9,8-84.2,9.9-124.3,8.1l-17.6-1.1c-81.2-4.9-173.1-21.3-263.4-24.8
	c-32.9-1.4-66.4-0.3-99.9,3.9c-51.2,6.7-96.5,21.8-141.3,35.7c-37.1,11.5-72.7,21.6-112.4,25.8c-43.5,4.7-85.8,3.1-141.1-4.2
	c-22.6-3.4-45.6-6.8-70-10.5c-9.5-1.4-19.1-2.8-28.8-4.3c-8-1.2-16.4-2-24.6-3v2.3c8.2,1,16.5,1.8,24.5,3c9.7,1.4,19.3,2.8,28.7,4.2
	c24.4,3.6,47.5,7.1,70.2,10.5c55.1,7.3,99.2,8.9,142.6,4.2c40.1-4.3,77.5-14.9,113.1-26.1c44.5-13.9,89.6-28.9,140.2-35.6
	c62.2-8.1,123.3-3.7,184.5,2.4c60.9,6.7,121.4,15,176.4,18.6l17.6,1.2c40.5,1.9,83.2,0.1,125.5-8V97.5z"/>
<path class="st0" d="M1023.4,99c-44,8.6-88.6,10.2-130.6,7.9l-18.1-1.2C793.6,100,702,83.1,611.8,79.2c-32.8-1.4-66.4-0.9-99.7,3.4
	c-51.7,6.5-97.4,21.6-142.5,35.4c-36.5,11.2-71.6,21.2-110.5,25.5c-43.1,4.9-86.6,3.6-140.6-3c-24.2-3-48.7-6.7-74.6-10.6
	c-7.9-1.1-15.9-2.2-24-3.4c-6.5-0.9-13.2-1.6-19.8-2.4v2.2c6.5,0.8,13.2,1.4,19.7,2.4c8.1,1.1,16.1,2.2,24,3.3
	c26,3.8,50.6,7.6,74.8,10.6c54.6,6.7,98.5,8,142.1,3c39.3-4.4,76.2-14.9,111.3-25.7c44.9-13.8,90.3-28.8,141.4-35.3
	c62.1-8,123.3-2.9,184.2,3.4c60.8,6.8,121.2,15.9,176,19.7l18.1,1.2c42.4,2.4,87.4,0.7,131.9-7.9V99z"/>
<path class="st0" d="M1023.4,100.1c-46,9.3-92.8,10.8-136.8,8l-18.8-1.2C787,100.4,695.6,83,605.5,78.7c-32.6-1.2-66.4-1.3-99.6,3
	c-52.2,6.3-98.2,21.4-143.7,35.2c-34.4,10.4-70.5,20.8-108.7,25.2c-43.2,5.1-86.6,4.3-140.1-1.8c-25.3-2.8-51-6.7-78.1-10.4
	c-6.7-0.9-13.5-1.8-20.3-2.7c-5-0.7-10-1.1-15-1.7v2.3c4.9,0.6,10,1.1,14.9,1.7c6.8,0.9,13.6,1.8,20.3,2.7
	c27.2,3.7,53,7.6,78.4,10.4c54.1,6.1,97.8,7,141.6,1.8c38.6-4.5,74.9-14.8,109.4-25.4c45.2-13.8,91-28.8,142.6-35.1
	c62.1-7.6,123.3-2.5,184.1,4.4c60.6,6.9,120.8,16.6,175.4,20.9l18.8,1.2c44.3,2.9,91.5,1.4,138-7.8V100.1z"/>
<path class="st0" d="M1023.4,101.4c-48.2,10-97.3,11.4-143.2,8l-19.2-1.4c-80.7-7.1-171.9-25.1-261.8-30
	c-32.7-1.5-66.2-1.5-99.5,2.5c-52.7,6.1-99.2,21.2-145,35.1c-33.9,10.1-69.3,20.3-106.8,24.8c-43.4,5.4-86.6,4.9-139.5-0.6
	c-26.9-2.7-54.3-6.7-83.3-10.4l-14.9-1.9c-3.4-0.4-6.8-0.7-10.2-1.1v2.3c3.4,0.4,6.8,0.7,10.1,1.1l14.9,1.9
	c29.1,3.7,56.6,7.7,83.6,10.4c53.5,5.6,97.1,6,141,0.6c37.8-4.6,73.5-14.8,107.5-25c45.6-13.8,91.7-28.9,143.8-34.9
	c62.2-7,123.3-2.1,183.9,5.5c60.4,7.2,120.4,16.9,174.9,22c6.4,0.8,12.7,1,19.2,1.4c46.3,3.4,95.8,2.1,144.5-7.9V101.4z"/>
<path class="st0" d="M1023.4,102.7c-50.2,10.7-101.5,11.9-149.3,8c-6.6-0.4-13.3-0.9-20-1.7c-80.3-7.3-171.5-26.2-261.2-31.4
	c-32.7-1.8-66.1-1.7-99.3,1.9c-53.2,5.9-100,20.9-146.3,34.9c-33.3,10-68.1,19.8-104.9,24.6c-43.6,5.7-86.6,5.6-139,0.6
	c-28.6-2.7-57.8-6.6-88.8-10.4l-9.2-1.1c-1.8-0.2-3.6-0.3-5.4-0.5v2.3c1.8,0.2,3.6,0.3,5.4,0.5l9.2,1.1c31,3.8,60.3,7.7,89,10.4
	c52.9,5,96.4,5.1,140.4-0.7c37-4.7,72.1-14.7,105.5-24.7c46-13.9,92.5-28.9,145.1-34.7c62.2-6.7,123.3-1.4,183.7,6.4
	c60.3,7.9,120.1,17.6,174.4,23.1c6.7,0.8,13.4,1.5,20,1.8c48.2,4,99.9,2.8,150.6-7.9V102.7z"/>
<path class="st0" d="M1023.4,104c-52.3,11.5-105.9,12.5-155.7,8.1c-6.8-0.4-13.7-1.4-20.5-2c-80.1-8-171-27.1-260.7-32.9
	c-32.8-2.2-65.9-1.9-99.2,1.4c-53.7,5.7-101.1,20.7-147.7,34.7c-32.7,9.8-66.9,19.4-102.8,24.2c-43.9,5.9-86.7,6.3-138.5,1.9
	c-30.1-2.6-61-6.5-93.7-10.2l-4.1-0.4c-0.2,0-0.4,0-0.6-0.1v2.3c0.2,0,0.4,0,0.6,0.1l4.1,0.4c32.7,3.8,63.7,7.7,94,10.3
	c52.3,4.4,95.5,4.1,139.9-1.9c36.3-4.9,70.6-14.5,103.5-24.4c46.3-13.9,93.4-28.9,146.5-34.6c62.1-6.5,123.3-0.6,183.4,7.3
	c60.2,8.4,119.7,18.4,173.9,24.2l20.6,2.1c50.1,4.5,104.2,3.5,157-8V104z"/>
<path class="st0" d="M1023.4,105.1c-4.9,1.1-9.8,2.1-14.7,3c-49.8,9.3-99.6,9.3-147.2,5.1l-21.2-2.3
	c-79.9-8.8-170.5-28.1-260.1-34.4c-32.8-2.4-65.8-2.4-99,0.9C427,83,379.2,98,332.2,112c-32.1,9.6-65.7,19-100.8,23.9
	c-43.4,6.2-87.4,6.9-138,3.1c-30.5-2.3-62.4-6.1-93.4-9.4v2.2c31.1,3.3,63.1,7.1,93.8,9.4c51,3.8,95.4,3.1,139.3-3.1
	c35.4-5,69.2-14.4,101.4-24.1c46.7-13.9,94.2-28.9,147.9-34.4c62.1-6.4,123.4,0.1,183.3,8.2c60,8.5,119.4,19.3,173.3,25.3l21.2,2.3
	c47.9,4.3,98.1,4.5,148.4-4.9c5-0.9,9.9-1.9,14.9-3V105.1z"/>
<path class="st0" d="M1023.4,106.2c-5.9,1.4-11.9,2.6-17.9,3.7c-50.9,9.4-101.9,9-150.5,4.3l-21.7-2.3c-79.7-9.5-170-29.3-259.6-36
	c-32.7-2.3-65.7-2.8-98.8,0.6c-54.9,5.3-103.1,20.3-150.5,34.3c-31.5,9.3-64.4,18.5-98.7,23.6c-43.7,6.5-87.5,7.6-137.4,4.3
	c-28-1.8-57-5-88.4-8.1v2.2c31.5,3.1,60.7,6.4,88.9,8.1c50.4,3.3,94.6,2.2,138.7-4.4c34.6-5.1,67.7-14.4,99.3-23.7
	C374,98.9,422,84,476.2,78.7c62-6.2,123.3,0.8,183.1,9.1c59.8,8.6,119.1,20,172.8,26.4l21.7,2.3c48.9,4.8,100.2,5.2,151.6-4.3
	c6-1.1,12-2.4,18-3.7V106.2z"/>
<path class="st0" d="M1023.4,107c-7,1.7-14,3.2-21,4.4c-52,9.6-104.1,8.9-153.6,3.8l-22.2-2.5C747,102.6,657.1,82.3,567.5,75.2
	c-32.6-2.3-65.6-3.1-98.6,0.1c-55.5,5.1-104.1,20.2-152,34.2c-30.8,9-63.1,18.1-96.6,23.2c-43.9,6.8-87.5,8.3-136.9,5.6
	c-27.4-1.4-55.8-4.3-83.4-6.8v2.2c27.7,2.6,56.3,5.5,83.9,6.9c49.8,2.8,93.9,1.3,138.2-5.6c33.8-5.2,66.1-14.3,97.1-23.4
	c47.6-14,95.9-29.1,150.7-34.1c61.9-5.8,123.2,1,182.8,10.1c59.7,8.9,118.7,20.3,172.3,27.4l22.3,2.5c49.9,5.3,102.3,6.1,154.9-3.5
	c7-1.3,14.1-2.8,21.1-4.4V107z"/>
<path class="st0" d="M1023.4,107.9c-8,2-16.1,3.7-24.1,5.2c-53.1,9.7-106.2,8.7-156.7,3.1c-7.7-0.8-15.3-1.6-23-2.8
	c-79.2-10.3-168.9-31.5-258.5-39c-32.5-2.5-65.4-3.2-98.3-0.3c-56.1,4.9-105.3,20-153.5,34.2c-30.2,8.8-61.7,17.7-94.4,22.9
	c-44.1,7.2-87.6,9-136.4,6.8c-24.6-1-49.9-3.3-78.4-5.7v2.2c28.7,2.5,54.2,4.8,79,5.8c49.3,2.2,93.1,0.3,137.7-6.9
	c32.9-5.2,64.6-14.2,94.9-23c48-14.1,96.8-29.2,152.3-34.1c61.9-5.2,123.2,1.4,182.7,11c59.6,9.3,118.3,20.9,171.7,28.3
	c7.7,1.2,15.3,2.1,23,2.9c50.8,5.7,104.3,6.7,157.9-3c8.1-1.5,16.3-3.2,24.4-5.2V107.9z"/>
<path class="st0" d="M1023.4,108.9c-9.1,2.3-18.1,4.3-27.2,6c-54.2,9.9-108.5,8.5-159.9,2.5c-7.9-0.7-15.8-2.1-23.6-3.2
	c-79-10.8-168.3-32.4-258-40.3c-32.5-2.8-65.2-3.4-98.2-0.8c-56.7,4.7-106.4,19.9-155.1,34.1c-29.5,8.6-60.3,17.2-92.1,22.5
	c-44.4,7.5-87.6,9.8-135.9,8.1C49,136.9,24.2,135,0,133.1v2.3c24.4,2,49.4,3.9,74,4.7c48.7,1.7,92.3-0.6,137.1-8.2
	c32.1-5.4,63-14,92.6-22.7c48.4-14.2,97.8-29.3,153.9-34c61.8-5,123.2,2.2,182.4,11.8c59.5,10,118,21.5,171.2,29.3
	c7.8,1,15.8,2.5,23.7,3.2c50,6,102.5,7.6,155.3-1.1c11.1-1.8,22.2-4.1,33.2-6.9V108.9z"/>
<path class="st0" d="M1023.4,110c-13.1,3.5-26.3,6.2-39.5,8.2c-52.3,8.2-104.4,6.2-154,0l-24.3-3.5
	c-78.9-11.6-167.8-33.1-257.5-41.7c-32.4-3.1-65-3.6-97.9-1.2c-57.4,4.5-107.6,19.8-156.8,34.1c-28.8,8.4-58.8,16.8-89.8,22.2
	c-44.6,7.8-87.7,10.5-135.3,9.4c-23-0.6-46.5-2.1-68.4-3.6v2.3c22.1,1.6,45.8,3,69.1,3.7c48,1.2,91.5-1.6,136.5-9.5
	c31.2-5.4,61.3-13.9,90.2-22.3c48.9-14.3,98.8-29.4,155.6-34c61.7-4.9,123.3,2.8,182.2,12.6c59.3,10.1,117.7,22.4,170.6,30.3
	l24.3,3.5c49.9,6.3,102.3,8.4,155.1,0.1c13.3-2.1,26.6-4.8,39.8-8.3V110z"/>
<path class="st0" d="M1023.4,110.8c-11.1,3-22.3,5.5-33.5,7.5c-56.5,10.1-112.9,8-166.3,0.8l-24.9-3.6c-53-8.1-111.5-21.1-171-31.3
	c-59.1-10-121.4-18.3-183.7-13.4c-58.1,4.4-108.8,19.6-158.5,34.1c-28.1,8.1-57.3,16.4-87.4,21.8c-44.9,8.2-87.8,11.3-134.8,10.7
	c-21.5-0.4-43.1-1.5-63.4-2.7v2.3c20.6,1.3,42.3,2.4,64.2,2.8c47.4,0.7,90.7-2.5,136-10.7c30.3-5.5,59.6-13.7,87.8-21.9
	c49.4-14.4,99.8-29.6,157.2-34c61.6-4.8,123.3,3.5,182.1,13.4c59,10.1,117.3,23.2,170,31.3l24.9,3.6c53.7,7.3,110.5,9.6,167.4-0.6
	c11.3-2,22.6-4.5,33.8-7.6V110.8z"/>
<path class="st0" d="M1023.4,111.6c-13.4,3.8-26.8,6.7-40.3,9c-56.4,9.6-112.8,6.6-165.9-0.7l-25.4-3.7
	c-52.9-8.8-111.2-21.9-170.5-32.3C562.3,73.3,500.1,65,438,69.6c-58.9,4-110.2,19.5-160.4,34.1c-27.3,7.9-55.7,15.9-84.9,21.4
	c-45.2,8.6-87.9,12.1-134.3,11.9c-17.6-0.1-36.6-0.8-58.4-1.9v2.3c22.1,1.1,41.4,1.8,59.2,1.9c46.8,0.2,89.9-3.4,135.4-12
	c29.3-5.5,57.8-13.6,85.2-21.5c49.9-14.5,100.9-29.9,159.1-34c61.5-4.5,123.2,3.8,181.8,14.2c58.9,10.4,116.9,23.5,169.5,32.2
	l25.5,3.8c53.5,7.5,110.2,10.5,167.1,1c13.5-2.3,27.1-5.3,40.5-9V111.6z"/>
<path class="st0" d="M1023.4,112.3c-15.7,4.6-31.6,8-47.5,10.4c-56.2,8.6-112,5.5-164.9-2.1c-8.8-1.3-17.5-2.4-26.2-4.1
	c-52.6-9.1-110.7-22.4-169.8-33.1c-59.1-11.1-121-19.2-183.2-15.2c-59.6,3.9-111.5,19.4-162.3,34.2c-26.5,7.7-54.1,15.5-82.3,21
	c-45.4,9-88,12.9-133.7,13.2c-16.4,0.1-33.9-0.3-53.5-1.1v2.3c19.9,0.8,37.7,1.3,54.3,1.2c46.1-0.3,89-4.3,134.9-13.3
	c28.4-5.6,56.1-13.4,82.7-21.1c50.4-14.7,102-30.2,161-34c61.6-4,123,4,181.7,15.1c58.7,10.7,116.5,23.9,168.9,33
	c8.7,1.7,17.5,2.9,26.3,4.2c53.2,7.8,109.5,11,166.3,2.3c15.9-2.4,31.8-5.8,47.6-10.4V112.3z"/>
<path class="st0" d="M1023.4,112.8c-21.8,6.5-44,10.9-66,13.4c-52.2,6.1-103.8,2.6-152.9-4.9c-8.9-1.2-17.9-2.8-26.7-4.5
	C671.9,99.2,550.1,60.2,425.5,67c-60.4,3.7-112.9,19.4-164.2,34.3c-25.7,7.5-52.4,15-79.7,20.6c-45.7,9.4-88.1,13.7-133.2,14.5
	c-14.9,0.3-30.9,0.1-48.5-0.4v2.3c17.9,0.5,34.2,0.8,49.4,0.5c45.5-0.8,88.2-5.1,134.3-14.6c27.4-5.6,54.3-13.2,80.1-20.7
	c51-14.8,103.1-30.5,162.9-34.2c123.2-6.9,244.4,32,349.8,49.7c8.8,1.6,17.8,3.4,26.7,4.5c52.9,8.1,108.8,11.7,165.3,3.6
	c18.4-2.6,36.8-6.5,55-11.8V112.8z"/>
<path class="st0" d="M1023.4,113.4c-23.9,7.3-48.3,12.1-72.5,14.8c-52.2,5.7-103.6,1.8-152.5-6c-9.2-1.3-18.5-3.3-27.5-4.8
	C665.4,99,543.8,59.5,419.3,65.8c-61.2,3.6-114.3,19.4-166.2,34.5c-24.9,7.2-50.7,14.6-77,20.2c-46,9.8-88.2,14.6-132.7,15.8
	c-13.6,0.5-27.9,0.4-43.5,0.2v2.3c15.9,0.3,30.5,0.3,44.5-0.2c44.8-1.2,87.4-6,133.7-15.9c26.5-5.6,52.4-13,77.3-20.2
	c51.5-15,104.3-30.8,164.9-34.3c123.1-6.4,244.1,33.1,349,51.4l27.6,4.9c52.6,8.3,108.1,12.3,164.3,4.8c20.7-2.8,41.6-7.2,62.2-13.4
	V113.4z"/>
<path class="st0" d="M1023.4,113.8c-22.7,7.2-46,12.1-69,14.9c-55.5,6.9-110.4,2.7-162.4-5.9l-28.2-5.1
	c-104.9-19-226.2-59.1-350.8-53.2C351,67.9,297.2,83.9,244.8,99.2c-24,7-48.9,14.1-74.2,19.7c-46.3,10.2-88.3,15.4-132.1,17.1
	c-12.2,0.5-25,0.6-38.5,0.6v2.3c13.9,0.1,27,0,39.6-0.6c44.1-1.7,86.5-6.9,133.2-17.2c25.4-5.5,50.4-12.7,74.5-19.7
	c52.1-15.2,105.6-31.1,167-34.5c123.1-6,243.8,34,348.3,53l28.2,5.1c49.1,8.2,100.8,12.6,153.4,7.5c26.5-2.6,53.3-7.8,79.5-16.1
	V113.8z"/>
<path class="st0" d="M1023.4,114.5c-28.1,9.2-57.1,14.6-85.7,17.2c-52.1,4.7-103.3,0-151.9-8.3l-28.9-5.3
	c-104.5-19.9-225.5-60.3-350-54.8c-63,3.2-117.5,19.3-170.5,34.9c-23.1,6.7-47.1,13.7-71.3,19.2c-46.9,10.7-88.7,16.4-131.6,18.4
	c-10.7,0.5-21.9,0.8-33.5,0.9v2.3c12-0.1,23.6-0.4,34.6-0.9c43.2-2.1,85.4-7.8,132.6-18.5c24.4-5.5,48.4-12.5,71.5-19.2
	c52.8-15.5,106.9-31.5,169.2-34.7c123.1-5.5,243.5,34.7,347.5,54.6l28.9,5.3c51.9,8.9,106.8,14,162.6,7.7
	c25.6-2.9,51.4-8.2,76.6-16.5V114.5z"/>
<path class="st0" d="M1023.4,114.7c-30.3,10.2-61.6,16.1-92.5,18.6c-52,4.2-103.1-0.8-151.7-9.4c-9.9-1.9-19.7-3.3-29.4-5.6
	c-50.6-11.4-108.2-24.3-166.8-37.4C524.2,68.5,462.9,59.1,400.7,62c-64.1,2.9-119.2,19.3-172.9,35.1c-22.1,6.5-45.1,13.2-68.2,18.6
	c-47.2,11.1-88.9,17.3-131,19.7c-9.1,0.5-18.7,0.9-28.5,1.1v2.3c10.3-0.3,20.3-0.6,29.7-1.1c42.5-2.5,84.5-8.6,132-19.8
	c23.3-5.5,46.3-12.1,68.4-18.7c53.4-15.8,108.2-32.1,171.5-35c61.5-3,122.3,6.4,180.7,18.6c58.3,13.1,115.5,26,165.9,37.4
	c9.8,2.3,19.5,3.8,29.5,5.7c51.6,9.3,106.2,14.5,161.7,8.9c28-2.7,56.3-8.5,83.9-17.8V114.7z"/>
<path class="st0" d="M1023.4,114.9c-32.4,11.3-66,17.6-99.1,19.9c-52,3.8-102.9-1.6-151.4-10.5c-10.1-1.7-20.1-3.7-30.1-6
	c-103.5-20.8-224-62.3-348.4-57.7c-65,2.7-120.9,19.4-175.3,35.5c-21.1,6.3-43.1,12.7-65.2,18.1c-47.4,11.6-88.9,18.1-130.4,21.1
	c-7.6,0.5-15.5,0.9-23.6,1.3v2.3c8.5-0.3,16.8-0.8,24.8-1.3c41.9-3,83.7-9.5,131.4-21.2c22.2-5.4,44.2-11.8,65.3-18.1
	c54.1-16,109.6-32.6,173.9-35.3c123-4.6,243,36.7,345.9,57.5c10,2.2,20,4.4,30.1,6.1c51.3,9.5,105.4,15.1,160.7,10.1
	c30.4-2.8,61.3-8.8,91.2-19.1V114.9z"/>
<path class="st0" d="M1023.4,115c-85.1,30.7-176.4,25.5-256.7,9.8c-10.3-1.7-20.7-4.3-30.8-6.4C633,97.1,512.7,55.2,388.2,59.3
	c-66.1,2.6-122.7,19.5-177.8,35.9c-20.1,6-41,12.2-61.9,17.5c-47.8,12.1-89.1,19-129.9,22.4c-5.9,0.5-12.5,0.7-18.6,1v2.3
	c6.6-0.4,13.6-0.6,19.9-1.1C61,134,102.6,127,150.7,114.9c21.1-5.3,41.9-11.5,62.1-17.5C267.6,81,323.9,64.1,389.2,61.6
	c123-4.2,242.7,37.6,345.1,59c10.2,2.1,20.5,4.7,30.8,6.4c48.6,9.3,99.7,15.1,152,11.8c35.4-2.3,71.5-8.9,106.2-21.3V115z"/>
<path class="st0" d="M1023.4,115.2c-87.1,32.5-180.8,26.7-263,10.2l-31.6-6.8C626.4,96.7,506.4,54.2,382,58
	c-67.2,2.4-124.7,19.6-180.5,36.4c-19,5.7-38.8,11.6-58.5,16.8c-48.7,12.8-88.6,19.9-129.3,23.7c-4.3,0.4-9.2,0.6-13.6,0.9v2.4
	c4.9-0.4,10.2-0.5,15-1c41-3.8,81.3-10.9,130.3-23.8c19.9-5.2,39.6-11.1,58.7-16.8C259.4,79.8,316.6,62.7,383,60.3
	c122.9-3.7,242.4,38.4,344.3,60.5l31.6,6.8c50.7,10,104.1,16.3,158.9,12.3c35.2-2.5,71.1-9.5,105.7-22.2V115.2z"/>
<path class="st0" d="M1023.4,115.4c-38.7,14.9-79.3,22.2-119,24c-51.8,2.4-102.4-4-150.4-13.7c-10.7-2.3-21.5-4.7-32.1-7
	c-102-22.8-221.8-65.5-346.1-62.1C307.4,58.8,249,76.3,192.4,93.6c-17.9,5.4-36.4,11.1-55,16.1c-49.1,13.3-88.8,20.9-128.8,25
	c-2.8,0.3-5.9,0.4-8.7,0.7v2.4c3.3-0.3,6.8-0.4,10.1-0.8c40.3-4.1,80.3-11.8,129.7-25.1c18.6-5,37.2-10.7,55.1-16.1
	c56.3-17.2,114.3-34.5,181.9-36.8c122.7-3.3,242.1,39.1,343.6,61.9c10.7,2.3,21.4,4.7,32.2,7c48.3,9.8,99.2,16.4,151.4,13.9
	c39.8-1.8,80.6-9.1,119.5-23.9V115.4z"/>
<path class="st0" d="M1023.4,115.4c-91.2,36-189.4,28.9-275.1,10.8c-11.3-2.6-22.4-4.6-33.5-7.5C613.4,95.4,493.6,52.3,369.5,55.3
	c-69.6,1.9-128.9,19.8-186.3,37.5c-16.8,5-34.1,10.1-51.3,15.3C82.6,121.9,43.1,130,3.7,134.4c-1.2,0.1-2.5,0.2-3.7,0.3v2.4
	c1.7-0.2,3.5-0.3,5.1-0.4c39.8-4.5,79.6-12.6,129.1-26.5c17.3-5.1,34.6-10.3,51.4-15.3c57.1-17.6,116-35.4,184.8-37.3
	c122.7-3,241.9,39.9,342.8,63.2c11.1,3,22.2,5,33.5,7.5c49.9,10.5,102.6,17.4,156.7,14.6c40-2,80.9-9.7,120-25.1V115.4z"/>
<path class="st0" d="M1023.4,115.2c-93.3,38-193.8,30.3-281.4,11.3c-11.5-2.5-22.9-4.9-34.1-7.9c-101-23.7-220.6-67.3-344.6-64.7
	c-71,1.7-131.1,20.1-189.4,38.2c-15.6,4.7-31.6,9.6-47.6,14.4C76.6,120.9,38.8,129.1,0,134.1v2.4c0.1,0,0.2,0,0.2,0
	c39.5-4.9,77.9-13.3,128.5-27.9c16-4.8,32.1-9.7,47.6-14.4c57.9-18.1,117.7-36.3,187.9-38c122.7-2.6,241.6,40.8,342,64.4
	c11.3,3,22.7,5.5,34.2,7.9c87.9,19.2,188.9,27.1,283-11V115.2z"/>
<path class="st0" d="M1023.4,114.9c-95.4,40.2-198.4,31.8-287.8,11.8c-11.7-2.4-23.3-5.4-34.7-8.2c-100.4-24.2-219.7-68.1-343.8-66
	C284.7,54,223.5,72.8,164.3,91.5c-14.2,4.4-28.9,9-43.5,13.5C86.7,115.2,45.8,126.3,0,133.1v2.5c46.8-6.8,88.5-18.1,123.2-28.4
	c14.6-4.5,29.3-9.1,43.5-13.5C225.6,75.1,286.4,56.3,358,54.8c122.6-2.2,241.3,41.6,341.3,65.7c11.5,2.8,23.1,6,34.8,8.3
	c89.8,20.2,193.1,28.8,289.4-11.5V114.9z"/>
<path class="st0" d="M1023.4,114.6c-97.6,42.5-203,33.3-294.4,12.3c-11.8-2.4-23.6-5.8-35.2-8.6c-100-24.7-219.1-69.2-343-67.3
	C277,52.5,214.7,71.7,154.7,91c-12.9,4.1-26.2,8.3-39.4,12.5C82.3,113.6,43,124.7,0,132v2.5c44-7.3,84.1-18.6,117.7-28.9
	c13.2-4.2,26.5-8.4,39.5-12.5c59.7-19.2,121.6-38.4,194.5-39.8c122.6-1.9,241.1,42.4,340.5,67l35.3,8.6c91.6,21.2,197.4,30.5,296-12
	V114.6z"/>
<path class="st0" d="M1023.4,114.3c-99.8,44.8-207.5,34.8-300.7,12.9l-36-9c-99.5-25.5-218.5-70.1-342.3-68.6
	c-75.3,1.2-138.8,21-199.7,41c-11.5,3.7-23.3,7.6-35,11.3C76.3,112.6,40,123.1,0,130.7v2.6c41-7.6,78.1-18.4,112.2-29.2
	c11.7-3.8,23.6-7.6,35.1-11.4C207.9,72.8,270.9,53.2,345.4,52c122.3-1.4,240.8,42.8,339.8,68.4l36,9c93.4,22,201.5,32.3,302.3-12.6
	V114.3z"/>
<path class="st0" d="M1023.4,113.9l-5.1,2.4c-100.7,44.1-208.7,33.4-302,10.9l-36.5-9.3c-98.9-26-218-70.9-341.5-69.7
	c-77.1,0.9-141.6,21.4-203.6,42.1l-30.5,10.1C72.2,111,37.2,121,0,128.8v2.6c38.2-7.9,74-18.2,106.7-28.9l30.5-10.1
	c61.6-20.6,125.8-41,202-41.9c122.3-1.1,240.6,43.5,339,69.4c12.1,3.5,24.2,6.2,36.5,9.4c93.9,22.7,202.6,33.6,304.5-11l4.2-2V113.9
	z"/>
<path class="st0" d="M1023.4,113.5c-2.4,1.2-4.9,2.3-7.4,3.4l-4.2,1.7c-101.1,43-208.7,31.6-301.8,8.7c-12.6-3.2-25-6.1-37.3-9.7
	C574.4,91.3,455.5,46,332,46.8c-78.9,0.6-144.7,21.9-207.8,43.4L98.7,99C63.5,110.9,32.3,120.5,0,128v2.6
	c33.2-7.5,65.2-17.3,101.2-29.5l25.6-8.7c62.7-21.4,128.1-42.5,206.1-43.2c122.1-0.7,240.3,44.2,338.2,70.5
	c12.3,3.6,24.7,6.7,37.3,9.8c93.7,23.1,202,34.8,304.3-8.7l4.2-1.8c2.2-1,4.3-2,6.4-3V113.5z"/>
<path class="st0" d="M1023.4,112.7c-5,2.5-10.1,4.8-15.3,7l-2.8,1.2c-101.4,42.1-208.8,29.9-301.7,6.5c-12.7-3-25.4-6.5-37.9-10.1
	c-97.8-26.8-216.6-72.3-340-71.9c-80.7,0.5-147.8,22.5-212,44.9C77.3,103,39.9,116.1,0,126.2v2.6c40.9-10.1,79.1-23.5,116.3-36.4
	c63.8-22.3,130.5-44.2,210.3-44.7c122.2-0.5,240.2,44.9,337.5,71.6c12.5,3.6,25.1,7.2,37.9,10.2c93.5,23.7,201.6,36,304.2-6.5
	l2.9-1.2c4.9-2.1,9.6-4.3,14.3-6.6V112.7z"/>
<path class="st0" d="M1023.4,113.8c-2.4,1.1-4.8,2.2-7.1,3.3l-1.7,0.7c-52.4,22.3-113.4,32.6-185.1,27.7
	c-34.8-2.6-69.4-8.5-102.1-15.8c-18.4-4.3-37.2-8.7-55.5-13.8C609.8,99,558,83.4,509.6,71.9c-63.8-15.6-121.3-24-177.4-23.4
	C269.1,49,215.7,61.7,176.4,73.2c-19.4,5.7-38.7,11.9-57.3,18.1c-26,8.6-52.9,17.7-80.4,25.4c-13.5,3.8-26.2,6.9-38.7,9.8v2.6
	c13.2-2.9,26.7-6.2,41-10.2c27.6-7.8,54.5-16.8,80.6-25.5c18.6-6.2,37.8-12.4,57.2-18c39-11.4,91.9-24,154.3-24.6
	c55.3-0.6,112.2,7.8,175.5,23.2c48.2,11.5,99.9,27.1,161.8,43.9c18.3,5.2,37,9.5,55.5,13.9c32.8,7.2,67.5,13.4,102.5,15.9
	c72.4,5.1,134-5.4,187.1-27.9l1.7-0.7c2.1-0.9,4.2-1.9,6.2-2.8V113.8z"/>
<path class="st0" d="M1023.4,114.4c-0.8,0.4-1.6,0.7-2.5,1.1c-52.4,22.8-111.7,32.3-184.4,27.8c-29.8-2.3-59.6-6.8-87.9-12.6
	c-23.4-4.7-47.4-10.5-70.4-16.3c-61.3-15.8-113.1-30.5-162.5-41.4c-63-14.3-120.5-22.2-177.1-21.4C275,52.3,221.4,64.3,182,75.1
	c-19.5,5.3-38.8,11.3-57.4,17.1c-26,8.1-52.8,16.7-80.3,23.9c-15.5,4.1-30,7.4-44.3,10.2v2.6c15-3,30.3-6.3,46.6-10.6
	c27.6-7.2,54.4-15.8,80.5-24c18.6-5.8,37.9-11.8,57.3-17.1c39-10.8,92.1-22.7,155.1-23.5C395.4,53,452.3,60.9,514.8,75
	c49.1,10.9,100.7,25.6,161.9,41.4c23.1,5.9,47,11.7,70.5,16.4c28.4,6,58.3,10.4,88.3,12.8c73.4,4.7,133.3-4.9,186.4-28l1.6-0.8
	V114.4z"/>
<path class="st0" d="M1023.4,114.8c-65.2,27.7-131.9,29.4-179.8,26.1c-25.4-1.8-51.2-5.5-75.7-10c-27.9-5-56.2-11.8-83.5-18.1
	c-60.3-14.8-112.1-28.5-162.5-39C459.8,61,402.3,53.6,345.1,54.5c-50.3,0.8-99,7.4-157.4,22.5c-19.5,5-38.9,10.7-57.5,16.2
	c-26,7.7-52.7,15.7-80.1,22.5c-17.5,4.4-33.9,7.7-50,10.5v2.5c16.8-2.9,34-6.3,52.2-10.9c27.5-6.8,54.3-14.8,80.3-22.5
	c18.6-5.5,38-11.1,57.4-16.1c58-15,106.2-21.6,156-22.4c56.6-1,113.5,6.3,175.1,19.2c50.1,10.4,101.7,24.1,161.9,38.9
	c27.3,6.4,55.6,13.1,83.5,18.2c24.6,4.5,50.4,8.3,76,10.1c48.1,3.4,115.2,1.7,181-26V114.8z"/>
<path class="st0" d="M1023.4,115.1c-62.8,25.4-126.6,26.7-172.8,23.5c-22.3-1.3-45.1-4.6-66.8-8.2c-31.1-5.1-62.8-12.4-93.2-19.2
	c-60.1-13.5-111.8-26.7-162.5-36.3c-60.5-11.7-119.4-18.3-176.6-17.3C301.4,58.5,251,65,193.3,79c-19.5,4.7-38.9,10-57.5,15.2
	c-25.9,7.2-52.7,14.8-80.1,21.1c-19.4,4.5-37.6,7.8-55.7,10.6v2.5c18.8-2.8,37.7-6.2,57.8-10.9c27.5-6.3,54.4-13.9,80.4-21.1
	c18.6-5.1,37.9-10.5,57.4-15.2c57.2-13.9,107.2-20.4,156.9-21.3c56.5-1,114.9,5.6,174.9,17.2c50.4,9.6,102,22.6,161.8,36.3
	c30.4,6.6,62.1,14.2,93.2,19.2c21.8,3.7,44.7,7,67.1,8.3c46.4,3.3,110.6,2.1,174-23.3V115.1z"/>
<path class="st0" d="M1023.4,115.2c-59.4,22.5-118.2,24.6-165.8,21c-19.2-1.2-38.9-3.8-57.7-6.6c-34.6-5.7-69.4-12.6-103.2-20.1
	C638.2,97.3,585,84.9,534.3,76C474.7,65.2,415.8,59.5,358,60.6c-50.8,1.1-101.4,7.2-159,20.3c-19.6,4.4-38.9,9.4-57.5,14.2
	c-25.9,6.7-52.7,13.8-80.1,19.6C40,119.4,19.9,122.7,0,125.3v2.5c20.6-2.6,41.3-6.1,63.4-10.8c27.5-5.9,54.4-12.9,80.3-19.7
	c18.6-4.8,37.8-9.8,57.4-14.2c57.2-13,107.4-19.1,157.7-20.2c57.2-1.1,115.5,4.5,174.7,15.2C584,87,637.1,99.4,695.3,111.7
	c33.8,7.6,68.6,14.5,103.2,20.3c18.8,2.7,38.6,5.5,57.9,6.7c47.8,3.6,107.1,1.6,167.1-20.9V115.2z"/>
<path class="st0" d="M1023.4,115.1c-56.7,19.9-112.9,22.4-158.8,18.8c-16.4-1.5-32.9-2.8-48.9-5.4c-37.8-5.1-75.9-13.2-112.8-20.7
	C645,96.4,591.8,85.4,540.4,77c-58.9-9.8-117.6-14.7-176-13.3c-51.4,1.2-102.3,6.9-159.8,19.2c-19.6,4.1-38.9,8.7-57.5,13.3
	c-25.9,6.3-52.7,12.8-80.1,18.2c-22.2,4.3-43.3,7.6-64.3,9.8c-0.9,0.1-1.9,0.1-2.7,0.2v2.4c1.3-0.1,2.8-0.2,4.2-0.3
	c21.2-2.2,42.4-5.5,64.8-9.9c27.6-5.4,54.4-12,80.4-18.3c18.6-4.5,37.8-9.1,57.3-13.2C263.8,72.9,314.3,67.2,365.3,66
	c57.9-1.4,116.1,3.5,174.5,13.1c51.1,8.4,104.1,19.4,161.7,30.9c36.8,7.5,74.9,15.6,112.7,20.8c16.1,2.6,32.7,4,49.1,5.4
	c46.3,3.6,102.8,1.3,160.1-18.7V115.1z"/>
<path class="st0" d="M1023.4,114.9c-54.1,17.7-107.7,19.8-151.9,16.6c-13.8-1-27.7-2.7-41.4-4.1c-40.7-5.4-81.5-13.8-121.2-21.1
	c-57-10.6-110.3-20.7-162.3-28.2C488.9,69.4,430.2,65,370.8,66.7c-52,1.4-103.1,6.8-160.6,18.1c-19.5,4.2-38.6,8.3-57.1,12.2
	c-26,5.9-52.9,12-80.5,16.9c-22.1,3.9-43.2,6.9-64.3,8.8c-2.7,0.2-5.7,0.3-8.4,0.6v2.4c3.2-0.3,6.6-0.4,9.7-0.7
	c21.3-1.9,42.6-4.9,64.9-8.8c27.7-5,54.6-11.1,80.7-16.9c18.5-4.2,37.5-8.4,57-12.2c57.1-11.3,107.9-16.6,159.5-18
	c59.6-1.7,116.1,2.5,174.3,11.2c51.7,7.5,104.8,17.5,161.6,28.2c39.5,7.3,80.4,15.9,121,21.2c14,1.4,27.9,2.9,41.6,4.3
	c44.5,3.2,98.6,1.2,153.2-16.6V114.9z"/>
<path class="st0" d="M1023.4,114.4c-50.6,15.7-100.5,17.4-145.1,14.4c-11.2-0.5-22.8-2-34.2-3.3c-43.3-5.1-86.7-13.8-129.1-21
	c-55.9-9.7-109.4-18.9-162.3-25.7c-57.8-7.3-114.8-11.1-175.5-9.2c-52,1.6-104.9,6.8-161.4,17c-19.4,3.8-38.4,7.6-56.7,11.2
	c-27.3,5.7-53.1,11.1-80.8,15.6c-22.2,3.6-43.2,6.2-64.4,7.8c-4.4,0.3-9.4,0.5-14,0.7v2.4c5-0.3,10.5-0.4,15.3-0.8
	c21.3-1.6,42.5-4.2,64.9-7.8c27.8-4.5,54.9-10.1,81-15.6c18.3-3.6,37.3-7.4,56.6-11.2c56.1-10.2,108.7-15.4,160.4-17
	C438.4,70,495,73.7,552.3,81c52.7,6.8,105.9,15.9,161.6,25.7c42.2,7.3,85.6,16,128.9,21.2c11.4,1.2,23.1,2.9,34.3,3.3
	c44.9,3,95.3,1.4,146.4-14.4V114.4z"/>
<path class="st0" d="M1023.4,113.8c-47.9,13.9-95.5,15.3-138.2,12.4c-9.1-0.7-18.1-1.1-27.3-2.4c-45.9-4.9-91.8-13.8-136.8-21
	C666,94,612.4,85.8,558.9,79.7c-56.6-6.3-113.6-9.1-175.2-7.1c-52.3,1.7-105.4,6.6-162.2,16c-18.9,3.4-37.4,6.8-55.2,10
	c-27.8,5.3-54,10.3-82.2,14.4c-22.1,3.2-43.2,5.4-64.4,6.8c-6.4,0.4-13,0.7-19.7,1v2.3c7.2-0.3,14.1-0.6,20.9-1
	c21.4-1.4,42.6-3.5,64.9-6.8c28.3-4,54.6-9.1,82.5-14.4c17.8-3.2,36.3-6.6,55.1-10c56.4-9.4,109.3-14.2,161.3-16
	c61.1-2,117.5,0.8,173.8,7C611.8,88,665.1,96.1,720,105c44.8,7.1,90.7,16.1,136.5,21.1c9.2,1.2,18.3,1.8,27.4,2.4
	c43,2.9,91.2,1.6,139.6-12.4V113.8z"/>
<path class="st0" d="M1023.4,112.8c-41.9,11.4-84.9,14.1-131.4,10.8c-7-0.6-14.1-1.1-21.2-1.7c-48.2-4.7-96.4-14-143.7-20.9
	c-54.4-7.7-108-15.2-162.1-20.4c-55.6-5.3-112.3-7.2-174.9-5c-53,1.9-106.4,6.4-163,14.9c-18.7,3.1-36.9,6.1-54.5,9
	c-28,4.8-54.5,9.5-82.9,13c-21.9,2.9-43,4.7-64.4,5.8c-8.1,0.4-16.6,0.6-25.4,0.8v2.3c9.1-0.2,18.1-0.4,26.5-0.8
	c21.6-1.1,42.8-2.9,64.9-5.8c28.5-3.6,55.1-8.2,83.2-13.1c17.6-2.9,35.7-5.9,54.3-9c56.3-8.5,109.5-13,162.2-14.9
	c62.1-2.2,118.5-0.4,173.6,4.9C618.5,88,671.9,95.4,726,103.2c47.1,7,95.2,16.3,143.4,21.1c7.1,0.6,14.2,1.1,21.2,1.7
	c46.9,3.3,90.4,0.8,132.8-10.8V112.8z"/>
<path class="st0" d="M1023.4,111.6c-39.6,9.9-80.5,12.2-124.6,9.4l-15.1-1.3c-50.6-4.4-100.8-14-150.5-20.6
	C678.8,91.8,626.6,86,571.2,81.5l-4.5-0.4c-53-4.1-108.2-5-170.1-2.5c-53.9,2.1-107.6,6.2-163.8,13.9c-18.4,2.7-36.3,5.4-53.6,8
	c-28.3,4.4-55.1,8.6-83.8,11.7c-21.8,2.5-42.8,3.9-64.4,4.7c-9.8,0.3-20.2,0.4-31.1,0.5v2.3c11.2,0,22-0.2,32.1-0.5
	c21.8-0.8,43-2.3,64.9-4.8c28.8-3.2,55.6-7.4,84-11.8c17.3-2.6,35.1-5.2,53.5-7.9C290.5,87.1,344,83,397.6,80.8
	c61.4-2.5,116.3-1.6,168.9,2.5l4.5,0.4c55.1,4.5,107,10.4,161.1,17.6c49.5,6.6,99.7,16.2,150.2,20.7l15.2,1.3c44.6,3,86,0.7,126-9.3
	V111.6z"/>
<path class="st0" d="M1023.4,110.3c-41.2,9.4-81.2,10.3-117.9,7.9l-9.9-0.8c-50.2-3.9-104.7-13.9-156.5-20.2
	c-53.7-6.5-105.7-11.4-161.7-14.8c-53-3.4-109.5-3.7-174.3-0.9c-53.8,2.4-109.4,6.2-164.6,12.9c-18,2.4-35.5,4.7-52.4,6.9
	c-28.7,4-55.8,7.7-84.9,10.4c-21.7,2.1-42.7,3.2-64.4,3.7c-11.5,0.2-23.8,0.2-36.8,0v2.3c13.3,0.2,25.9,0.2,37.7,0
	c21.9-0.5,43.1-1.7,65-3.7c29.2-2.8,56.4-6.5,85.1-10.5c16.9-2.2,34.3-4.5,52.3-6.9c55-6.7,110.3-10.5,164-12.9
	c64.4-2.9,120.6-2.5,173.2,0.8c55.3,3.4,107.4,8.3,160.8,14.8c51.5,6.3,106,16.4,156.1,20.3l9.9,0.8c37,2.5,77.5,1.7,119.3-7.9
	V110.3z"/>
<path class="st0" d="M1023.4,108.8c-38.6,8-76.5,8.6-111.2,6.4l-4.6-0.3c-52.1-3.5-108.6-13.6-162.5-19.7
	c-53.1-5.8-105.2-9.7-161.6-12.2c-51.3-2.2-107.7-1.9-173.9,1.2c-55,2.6-110.8,6.1-165.5,11.9c-17.6,2-34.6,4-51.1,5.9
	c-29.1,3.5-56.6,6.8-86.1,9.1c-21.6,1.6-42.7,2.6-64.4,2.7c-13.1,0.2-27.1-0.1-42.5-0.5v2.3c15.7,0.5,29.9,0.7,43.3,0.6
	c22-0.1,43.2-1,64.9-2.7c29.7-2.3,57.2-5.6,86.4-9.1c16.4-1.9,33.4-3.9,51-5.9c54.4-5.8,110.1-9.3,164.9-11.9
	c65.9-3.2,122-3.5,173-1.3c56,2.3,107.9,6.4,160.6,12.2c53.7,5.9,110.1,16.3,162.1,19.9l4.6,0.3c35.2,2.3,73.5,1.7,112.6-6.4V108.8z
	"/>
<path class="st0" d="M1023.4,107.3c-35.5,6.6-70.6,7-104.6,5C865.1,109,807.1,98.9,751,93.4c-52.5-5-104.8-8.3-161.4-9.6
	c-50.3-1.3-104.9,0-173.6,3.4c-56.3,2.8-112.5,6-166.3,10.9c-17.1,1.7-33.5,3.3-49.4,4.9c-29.6,3.1-57.6,5.9-87.7,7.8
	c-21.5,1.3-42.6,1.9-64.5,1.7c-14.5,0-30.5-0.6-48.2-1.3v2.3c18,0.8,34.2,1.3,48.9,1.3c22,0.2,43.3-0.4,64.9-1.7
	c30.2-1.8,58.3-4.7,87.9-7.8c15.9-1.6,32.3-3.2,49.4-4.9c53.6-5,109.7-8.1,165.8-10.9c68.3-3.4,122.7-4.8,172.6-3.4
	c56.6,1.5,108.3,4.5,160.5,9.6c55.8,5.5,113.6,15.6,167.3,19.1c34.4,2.1,70,1.7,106-5V107.3z"/>
<path class="st0" d="M1023.4,105.5c-32.4,5.5-64.9,6-98,3.9c-50.6-2.9-110.6-13.2-168.5-17.9c-51.9-4.2-104-6.5-161.2-6.9
	c-48.3-0.5-102.9,2-173.2,5.6c-58.1,3.1-114.6,5.8-167.2,10c-16.4,1.4-32.2,2.7-47.4,4c-30.3,2.6-58.9,5.1-89.7,6.4
	c-21.2,0.9-42.3,1.2-64.4,0.7C38,110.8,20.3,110,0,108.9v2.3c20.6,1.1,38.5,2,54.6,2.3c22.2,0.5,43.5,0.3,64.9-0.7
	c30.9-1.3,59.6-3.8,89.9-6.4c15.2-1.3,31-2.6,47.4-4c52.4-4.1,108.8-6.9,166.8-10c70-3.7,124.3-6.1,172.3-5.6
	c57,0.4,108.7,2.7,160.3,7c57.5,4.7,117.4,15,167.9,18c33.5,2.2,66.5,1.8,99.4-3.8V105.5z"/>
<path class="st0" d="M1023.4,103.4c-29.5,4.5-59.6,5-91.4,3.1c-56.9-3.5-114.1-13.4-169.3-17.1c-52-3.5-102.5-4.6-161-4.1
	c-46.7,0.4-99.5,3.5-172.8,7.8c-61.5,3.3-118,6.3-168,9c-15.4,1.1-30.3,2.1-44.8,3.1c-31.1,2.2-60.6,4.2-92.2,5
	c-21.3,0.6-42.4,0.4-64.5-0.3c-19.6-0.7-39.9-1.9-59.6-3.2v2.3c19.9,1.3,40.4,2.6,60.2,3.3c22.2,0.8,43.5,0.9,64.9,0.3
	c31.7-0.8,61.3-2.8,92.5-5c14.4-1,29.3-2,44.7-3.1c49.9-2.7,106.3-5.7,167.7-9c73-4.3,125.6-7.4,172-7.8c58-0.6,108.3,0.6,160,4.2
	c54.7,3.7,111.8,13.6,168.6,17.2c32.3,2,62.8,1.6,92.8-3V103.4z"/>
<path class="st0" d="M1023.4,101c-27.4,3.6-55.4,4-84.9,2.4c-53.9-2.8-113.4-13-169.9-16.1c-51.5-3-101.9-2.9-160.8-1.3
	c-56,1.5-115.6,6.4-172.4,9.9c-65.4,3.1-122.2,5.8-168.9,8c-14.3,0.8-28.1,1.5-41.6,2.2c-32.2,1.7-62.7,3.3-95.3,3.6
	c-21.1,0.3-42.2-0.3-64.5-1.3c-20.3-1-41.6-2.6-65.3-4.3v2.3c23.9,1.8,45.4,3.4,65.8,4.4c22.4,1.1,43.6,1.6,64.9,1.3
	c32.8-0.3,63.3-1.8,95.6-3.6c13.4-0.7,27.2-1.4,41.5-2.2c46.6-2.2,103.3-4.9,168.7-8c56.6-3.5,115.9-8.4,171.7-10
	c58.4-1.6,108.4-1.7,159.7,1.4c56.1,3.2,115.4,13.2,169.2,16.3c30,1.6,58.4,1.3,86.3-2.4V101z"/>
<path class="st0" d="M1023.4,98.6c-27,3.1-53.3,3-78.4,1.5C891.4,97.3,832.4,88,774.5,85.2c-51.1-2.3-101.3-1.6-160.5,1.5
	c-49.6,2.2-102.1,7.3-172,12c-67,4.3-122.4,5.3-169.7,7.1c-13.1,0.5-25.6,1-37.9,1.4c-33.4,1.3-65.1,2.3-99,2.1
	c-20.8-0.1-41.9-1-64.4-2.3c-22.5-1.8-46.5-3.7-71.1-5.7v2.2c24.7,2,48.8,3.9,71.5,5.7c22.7,1.3,43.9,2.2,64.9,2.3
	c34,0.3,65.8-0.8,99.3-2.1c12.3-0.5,24.8-0.9,37.8-1.4c47.3-1.8,102.7-2.8,169.6-7.2c69.7-4.7,122.1-9.8,171.4-12
	c58.7-3.1,108.6-3.7,159.4-1.5c57.5,2.7,116.3,12.2,169.8,15.2c25.5,1.5,52.3,1.7,79.9-1.5V98.6z"/>
<path class="st0" d="M1023.4,96.1c-24.2,2.3-48.2,2.1-72,0.9c-57.2-3.3-114.7-11.8-171.2-13.8c-50.6-1.6-100.7-0.1-160.2,4.1
	C568,91.5,514,96,448.5,101.4c-22.2,1.6-44,2.6-65.1,3.4c-37.9,1-73.6,2-105.4,2.8c-11.3,0.3-22.2,0.5-32.9,0.7
	c-35.1,0.8-68.3,1.3-103.8,0.5c-20.4-0.5-41.5-1.6-64.4-3.3c-24.2-2.2-50.6-4.6-76.8-7v2.2c26.3,2.4,52.8,4.8,77.1,7
	c23,1.7,44.3,2.8,64.8,3.3c35.6,0.9,68.9,0.3,104.1-0.5c10.7-0.2,21.6-0.5,32.9-0.7c31.7-0.9,67.5-1.8,105.4-2.9
	c21.1-0.9,43-1.8,65.2-3.4c65.3-5.4,119.3-9.9,171-14.3c59-4.2,108.7-5.7,159-4.1c56.1,2,113.3,10.7,170.3,14
	c24.3,1.3,48.8,1.5,73.5-0.8V96.1z"/>
<path class="st0" d="M1023.4,93.4c-20.8,1.6-41.4,1.5-62,0.5l-3.6-0.2C903.4,90.8,843.5,82,786,81c-50.3-1-100.2,1.4-159.9,6.7
	c-48.6,4.1-100.6,11.1-162.5,15.8l-8.6,0.6c-41,3-81.4,4.2-117.3,4.7c-19,0.2-37.2,0.4-54.2,0.6c-8.9,0.1-17.5,0.1-26,0.2
	c-37.4,0.3-72.9,0.3-110.7-1.3c-20.3-0.8-41.4-2.2-64.4-4.3C57,101.6,29.2,98.8,0,95.9v2.3c29.3,3,57.2,5.8,82.8,8.3
	c23.2,2.1,44.4,3.5,64.8,4.3c37.9,1.6,73.5,1.6,111,1.3c8.5-0.1,17.1-0.1,26-0.2c17-0.2,35.1-0.4,54.2-0.6
	c35.9-0.5,76.3-1.7,117.4-4.8l8.6-0.6c61.8-4.8,113.7-11.8,162.1-15.9c60.1-5.4,108.1-7.7,158.7-6.7c57,1.1,116.7,9.9,170.9,12.9
	l3.6,0.2c21.1,1.1,42.2,1.2,63.5-0.5V93.4z"/>
<path class="st0" d="M1023.4,90.4c-17.6,1.2-35.1,1.1-52.5,0.4c-2.2,0-4.5-0.1-6.8-0.3c-54.1-2.8-113.9-11.6-172.5-11.7
	c-50.5-0.1-98.8,2.9-159.5,9.5c-43.4,4.6-89.1,11.2-143.5,16.4c-8.9,0.8-17.9,1.5-27.2,2.3c-52.4,4-102.7,4.6-147.2,4.5
	c-8.6,0-17-0.1-25-0.1l-17.8-0.1c-42-0.3-78.4-0.9-118.8-3.2c-20.2-1.2-41.3-2.9-64.4-5.3c-24-2.7-49.9-5.6-77.4-8.7L0,93v2.2
	l10.9,1.1c27.5,3.1,53.4,6,77.5,8.7c23.2,2.4,44.4,4.2,64.7,5.4c40.5,2.3,77,3,119.1,3.2l17.8,0.1c8.1,0,16.4,0.1,25,0.1
	c44.6,0,95-0.6,147.5-4.6c9.3-0.8,18.3-1.6,27.2-2.4c54.4-5.1,99.9-11.8,143.1-16.4c60.3-6.5,108.1-9.6,158.3-9.4
	c58,0.1,117.6,9,171.5,11.8l6.8,0.4c17.9,0.8,35.9,0.8,53.9-0.4V90.4z"/>
<path class="st0" d="M1023.4,87.3c-14.5,0.7-28.9,0.7-43.3,0.2l-9.7-0.3C919.7,85,857.1,76,797.4,76.5c-64,0.8-118,7-159.1,12.3
	c-39,5-79.3,11.6-127.7,16.9c-13.8,1.3-27.9,2.7-42.6,4.1c-61.4,4.9-121.5,4.4-169.8,3.6l-5.9-0.1c-47.6-0.9-88.8-2.2-134-5.5
	c-20.2-1.5-41.3-3.6-64.4-6.3c-20.9-2.6-43.1-5.3-66.7-8.2c-8.9-1-18-2.1-27.3-3.1v2.3c9.3,1.1,18.4,2.1,27.3,3.1
	c23.6,2.9,45.9,5.6,66.8,8.2c23.2,2.7,44.3,4.8,64.7,6.3c45.3,3.4,86.7,4.6,134.3,5.5l5.9,0.1c48.4,0.8,108.6,1.3,170.2-3.6
	c14.7-1.4,28.9-2.8,42.7-4.2c48.3-5.3,88.5-11.9,127.4-16.9C680,85.7,733.4,79.5,797,78.8c59.2-0.5,121.5,8.6,172.1,10.9l9.7,0.3
	c14.9,0.5,29.7,0.6,44.7-0.1V87.3z"/>
<path class="st0" d="M1023.4,84c-11.4,0.4-22.8,0.4-34.2,0l-12.6-0.5c-50.7-2.1-112.9-10.3-173.6-9.4c-63.5,1.6-117.3,9-158.6,15.2
	c-35.3,5.3-73.1,11.7-114.5,17.1c-17.5,2.3-35.9,4.3-55.4,6c-62.2,5.3-122.5,4.3-174.1,2.7c-48.8-1.5-90-3.6-136.4-7.8
	c-20-1.8-41-4.2-64.3-7.2c-18.3-2.5-37.7-5.1-58.2-7.8c-13-1.6-26.5-3.3-40.4-5.1c-0.4,0-0.8-0.1-1.2-0.1v2.3c0.4,0,0.8,0.1,1.2,0.1
	c13.9,1.7,27.3,3.4,40.3,5c20.5,2.8,39.9,5.4,58.3,7.8c23.4,3,44.5,5.5,64.6,7.3c46.6,4.3,87.8,6.3,136.8,7.8
	c51.7,1.5,112.1,2.6,174.5-2.8c19.5-1.7,37.9-3.7,55.5-6.1c43.2-5.7,79.1-12,114.2-17.1c40.9-6.1,94.3-13.5,157.3-15.1
	c60.2-0.9,122.1,7.4,172.5,9.6l12.6,0.5c11.8,0.4,23.7,0.4,35.6,0V84z"/>
<path class="st0" d="M1023.4,80.8c-8.4,0.2-16.7,0.2-25,0c-5.2-0.2-10.3-0.5-15.6-0.7c-46.9-2-111.9-9.5-174.1-8.1
	c-63.2,2.2-116.8,11.2-158.1,18c-32,5-65.6,12-102.8,17.3c-21,3-42.9,5.9-66.7,8c-62.6,5.7-123.7,4.2-175,1.9
	c-50.5-2.3-91.1-5.2-136.3-10.1c-19.5-2.1-40.5-4.8-64.3-8.2c-15.6-2.3-31.8-4.7-48.9-7.2c-16-2.2-32.6-4.4-49.9-6.7
	c-2.2-0.3-4.5-0.4-6.6-0.6v2.3c2.2,0.2,4.4,0.4,6.6,0.6c17.3,2.3,33.8,4.6,49.8,6.7c17.2,2.5,33.4,4.9,49,7.2
	c23.9,3.4,45,6.1,64.6,8.2c45.4,4.9,86,7.8,136.7,10.1c51.4,2.3,112.6,3.8,175.5-2c23.8-2.1,45.8-5,66.9-8
	c37.1-5.3,70.6-12.4,102.5-17.4c41-6.7,94.2-15.7,156.8-17.8c61.6-1.3,126.4,6.3,173,8.4l15.6,0.7c8.8,0.2,17.6,0.2,26.5,0V80.8z"/>
<path class="st0" d="M1023.4,77.2c-5.5,0.1-10.9,0-16.4-0.1c-5.9,0.1-12-0.3-18.1-0.6c-46.7-1.7-111.8-9.6-174.6-6.9
	C751.9,72.3,700.5,82,656.7,90.2c-29.1,5.4-59.6,12.1-93.1,17.5c-23.7,4-48.5,7.6-75.9,10.1c-65.3,6.2-128.4,3.9-175.9,1.1
	c-54.8-3.2-94.4-7.1-136.2-12.3c-19.2-2.4-40.1-5.5-64.3-9.2c-13.2-2.1-26.9-4.3-41.1-6.5c-18.6-2.7-37.8-5.5-58.1-8.5
	C8.1,82,4,81.8,0,81.3v2.3c4,0.5,8.1,0.7,12,1.2c20.3,2.9,39.4,5.7,58,8.4c14.3,2.3,28,4.4,41.1,6.5c24.2,3.7,45.3,6.8,64.5,9.2
	c42,5.2,81.7,9.1,136.7,12.4c47.6,2.7,111,5,176.5-1.2c27.4-2.5,52.3-6.1,76.1-10.1c33.4-5.5,63.9-12.2,92.9-17.6
	c43.5-8.1,94.3-17.7,156.3-20.5c62.2-2.6,127,5.3,173.5,7.1c6,0.3,12.3,0.9,18.1,0.7c5.9,0.1,11.9,0.2,17.8,0.1V77.2z"/>
<path class="st0" d="M1023.4,73.5c-2.6,0-5.3,0-7.9,0c-6.8-0.1-13.5,0-20.5-0.4c-73.4-4-126.3-9-175.2-5.7
	c-62.2,3.4-113.3,14.1-157.1,23.2c-26.9,5.7-54.9,11.6-84.5,17.8c-26,4.7-53.4,9.2-84,12.1c-68,6.6-133.6,3.4-176.8,0.3
	c-51.3-3.7-92-8.3-136.2-14.6c-18.8-3-39.8-6.3-64.2-10.1c-10.8-1.8-21.9-3.7-33.5-5.7c-21-3.6-42.7-7-66-10.3
	C11.8,79.3,5.8,79,0,78.3v2.3c5.8,0.7,11.7,1,17.4,1.8c23.3,3.2,45,6.7,65.9,10.3c11.6,2,22.7,3.9,33.5,5.7
	c24.5,3.9,45.6,7.2,64.5,10.2c44.3,6.2,85.2,10.9,136.6,14.6c43.4,3.1,109.3,6.3,177.6-0.4c30.8-3,58.2-7.5,84.3-12.3
	c29.6-6.3,57.5-12.2,84.3-17.8c43.4-9.1,94.1-19.7,155.7-23.1c48.4-3.2,100.9,1.8,173.9,5.9c7,0.6,13.7,0.4,20.5,0.5
	c3.1,0,6.2,0.1,9.3,0V73.5z"/>
<path class="st0" d="M1023.4,69.8c-7.4-0.2-14.8-0.3-22.4-0.5c-72.2-3.4-127-8.5-175.7-4.5c-61.7,4.6-112.8,15.9-156.5,26.1
	c-24.2,5.7-49.6,12-77,17.7c-27.8,6-57.5,10.9-91,14.6c-52.7,5.4-109.5,5.1-177.7-0.5c-48.7-4.1-89.4-9.3-136.1-16.7
	c-17.9-3.1-38.3-6.6-64.2-11.1c-8.4-1.5-16.9-3.1-25.8-4.7c-23.4-4.2-47.6-8.5-74-12.3C15.4,76.7,7.7,75.9,0,75v2.3
	C7.6,78.1,15.3,79,22.8,80c26.3,3.8,50.5,8,73.8,12.2c8.8,1.6,17.4,3.2,25.8,4.7c26,4.5,46.4,8,64.4,11.1
	c46.9,7.4,87.7,12.7,136.6,16.8c68.6,5.6,125.6,5.9,178.6,0.5c33.7-3.7,63.4-8.6,91.3-14.7c27.4-5.7,52.7-12.1,76.8-17.8
	c43.3-10.1,93.8-21.4,155-25.9c48.2-3.9,102.5,1,174.4,4.8c7.7,0.2,15.3,0.3,22.9,0.5c0.3,0,0.6,0,0.9,0V69.8z"/>
<path class="st0" d="M1023.4,65.9c-5.4-0.2-10.9-0.3-16.5-0.5c-71.9-2.7-127.1-8-176.1-3.1C769.6,67.9,718.6,80,675,91.2
	c-22.6,5.7-45.9,11.5-70.6,17.7c-29.4,6.9-60.8,12.8-97,16.8c-52.9,5.8-111.7,5.1-178.7-1.3c-46.3-4.4-87-10.3-136-18.9
	c-16.6-3.1-35.4-6.7-60.7-11.4c-7.2-1.4-15-2.9-22.8-4.4c-25.4-5-51.7-9.9-80.8-14.2C19.1,74.1,9.5,73,0,71.8v2.3
	c9.5,1.1,18.9,2.2,28.2,3.6c19.5,2.9,37.8,6.1,55.3,9.4c15.3,2.9,30.2,5.8,44.6,8.6c27.2,5.1,47,8.8,64.3,12.1
	c49.2,8.6,90,14.5,136.5,19c67.3,6.4,126.4,7,179.7,1.2c36.4-4,67.9-10,97.4-16.9c24.6-6.2,47.9-12.1,70.4-17.7
	C719.6,82.2,770,70,830.7,64.6C879.3,59.8,934,65,1005.5,68c6,0.2,12,0.3,17.9,0.5V65.9z"/>
<path class="st0" d="M1023.4,62c-3.5-0.1-7.1-0.3-10.6-0.4c-71.9-2.7-126.9-7.1-176.6-1.8C775.2,66,724.7,79.7,681.1,91.6
	c-20.8,5.7-42.2,11.5-64.8,17.7c-30.8,7.5-63.6,15-102.2,19.1c-53.7,6.1-112.8,5.3-179.6-2c-55-6-97.8-13.8-136-21.1
	c-19-3.9-39.4-8-64.1-13L122,89.6c-26.3-5.4-56-11.6-88.1-16.4C22.8,71.4,11.4,70,0,68.7v2.3c11.3,1.3,22.6,2.7,33.6,4.5
	c31.9,4.9,61.6,11,87.8,16.4l12.3,2.6c24.8,5,45.2,9.2,64.3,13.1c38.2,7.3,81.2,15.2,136.4,21.2c67.2,7.3,126.7,8.1,180.8,1.9
	c38.8-4.1,71.8-11.5,102.6-19.2c22.6-6.2,44-12,64.7-17.6c43.2-11.9,93.2-25.4,153.7-31.6c49.1-5.3,103.8-0.7,175.2,2.1
	c4,0.1,8,0.3,12.1,0.4V62z"/>
<path class="st0" d="M1023.4,58c-1.6-0.1-3.1-0.1-4.7-0.2c-71.1-2.7-127.4-6.1-177-0.5C781,64,730.7,79,687.2,91.8
	c-19.1,5.6-38.8,11.3-59.5,17.4c-32,9-66.1,16.9-107,21.6c-53.7,6.3-114.9,5.3-180.6-2.7c-49.8-6-90.4-13.8-135.9-23.3
	c-20.1-4.4-41.5-9.1-64.1-14l-5.4-1.2c-28.3-6.2-60.5-13.3-95.3-18.8C26.4,68.7,13.3,66.9,0,65.4v2.3c13.2,1.5,26.2,3.3,39.1,5.4
	c34.7,5.5,66.8,12.5,95,18.7l5.4,1.2c22.7,4.9,44,9.6,64.2,14c45.8,9.6,86.4,17.4,136.4,23.4c66.1,8.1,127.7,9,181.8,2.6
	c41.1-4.7,75.4-12.7,107.5-21.8c21.1-5.7,40.5-12.1,59.4-17.5c45.2-13.5,92.8-27.7,153-34.3c49-5.5,105-1.9,175.6,0.8
	c2.1,0.1,4.1,0.2,6.2,0.3V58z"/>
<path class="st0" d="M1023.4,54c-70.7-2.9-126.6-5.5-176.3,0.8C786.7,62,738.8,77.4,693.3,92c-17.4,5.5-35.4,11.6-54.8,17.4
	c-31.4,9.8-68.2,18.7-111.2,24c-54.5,6.6-116.1,5.4-181.6-3.4c-52.8-7-94.3-16.1-135.8-25.5c-14.9-3.5-30.6-7.1-47.3-11l-16.8-3.9
	c-29.7-6.9-63.6-14.7-101-21C30.1,66.1,15.1,64,0,62.3v2.3c15,1.7,29.9,3.7,44.5,6.2c37.5,6.3,71,14,100.6,20.9l16.8,3.9
	c16.7,3.9,32.4,7.6,47.4,11c41.6,9.4,83.2,18.5,136.4,25.6c65.9,8.8,127.9,10,182.9,3.3c43.2-5.4,80.1-14.5,111.7-24.2
	c19.1-6.1,37.1-11.8,54.7-17.4c45-14.4,92.5-29.7,152.2-36.9c49.5-6.2,105.3-3.5,176-0.5c0.1,0,0.2,0,0.4,0V54z"/>
<path class="st0" d="M1023.4,49.8c-67.9-2.2-122.5-4.8-171,2.5c-60.3,8.1-107.9,24.3-153.1,39.9c-16.3,5.6-32.9,11.3-50.5,17.3
	c-32.4,10.3-70,20.8-114.9,26.5c-55,6.9-117,5.3-182.6-4.1c-50.7-7.3-91.4-16.9-135.7-27.7c-11.6-2.9-23.8-5.9-36.6-9.1
	c-8.8-2.2-18-4.5-27.5-6.8C121,80.7,90.5,73.5,56.4,67.3l-6.1-1.1C33.9,63.3,17,61.1,0,59.2v2.3c16.9,1.9,33.6,4.1,50,7l6.1,1.1
	c33.9,6.2,64.3,13.3,94.8,20.9c9.5,2.3,18.6,4.6,27.5,6.8c12.8,3.2,24.9,6.2,36.6,9.1c44.4,10.8,85.2,20.4,136.3,27.8
	c66,9.5,128.5,11.1,184,4.1c45.2-5.7,83-16.4,115.5-26.7c17.6-6,34.2-11.8,50.4-17.3c44.8-15.5,92.1-31.6,151.5-39.6
	c48.3-7.2,102.8-4.6,170.9-2.1V49.8z"/>
<path class="st0" d="M1023.4,45.5c-65-1.6-118.3-4-165.7,3.9c-59.9,9.1-107.2,26.1-152.3,42.8c-14.9,5.6-30.2,11.2-46.7,17
	c-33,11.4-71.6,23.2-118.2,29.2c-69.4,8.9-138.6,2.3-183.6-4.8c-49-7.6-87.2-17.2-135.7-29.9c-9.3-2.4-18.9-5-28.8-7.6
	c-11.2-2.9-22.9-6-35.2-9.2C128.3,79.4,94,70.9,56.2,64l-0.4-0.1c-18.3-3.4-37-5.8-55.8-7.8v2.3c18.7,2,37.2,4.5,55.4,7.8l0.4,0.1
	C93.4,73,127.6,81.5,156.5,89c12.2,3.2,23.9,6.3,35.1,9.2c10,2.6,19.6,5.2,28.9,7.6c48.7,12.7,87,22.3,136.3,30
	c45.3,7.1,115,13.9,185.1,4.8c47-6,85.7-18,118.8-29.4c16.5-5.7,31.7-11.4,46.6-17c44.5-16.6,91.4-33.3,150.6-42.5
	c47.2-7.8,100.4-5.4,165.6-3.6V45.5z"/>
<path class="st0" d="M1023.4,41.4C976.5,40.3,918.5,38,863,46.7c-59.6,10.1-106.7,27.9-151.4,45.7c-14,5.4-28.3,10.9-43.3,16.7
	c-33.5,12.6-72.8,25.3-121,31.7c-70.2,9.6-139.6,2.1-184.6-5.4c-50.3-8.4-89.1-19.2-133.9-31.5l-1.7-0.5c-6.5-1.8-13.1-3.7-19.9-5.6
	c-13.9-3.8-28.5-7.9-44-12.2c-30.6-8.3-64.1-16.9-101.8-24C41.2,57.8,20.7,55.2,0,53v2.2c19.2,2,38.4,4.5,57.2,8l3.7,0.7
	c37.4,7,70.8,15.6,101.3,23.9c15.5,4.3,30.1,8.3,43.9,12.2c6.8,1.9,13.5,3.8,20,5.6l1.7,0.5c43.1,11.9,80.6,22.2,128.3,30.6l6.3,1.1
	c45.3,7.5,115.4,15.1,186.2,5.4c48.5-6.5,88-19.2,121.7-32c15.3-5.4,29.4-11.6,43.2-16.7C757.7,76.7,804,59.1,863.1,49
	c55.4-8.7,113.6-6.1,160.3-5V41.4z"/>
<path class="st0" d="M1023.4,37.2c-45.9-1-101.5-2.3-155.3,6.8c-59.4,10.9-105.9,30-150.5,48.6c-13,5.3-26.2,10.7-40.1,16.5
	c-34,13.7-73.9,27.1-123.6,34.2c-67.3,9.7-133.7,2.7-178.7-4.8l-6.9-1.2c-48.8-8.8-86.1-19.6-129.4-32.3l-20.1-6
	c-15.9-4.6-32.2-9.4-50-14.6c-28.8-8.1-63.4-17.6-102.1-24.9L59.2,58c-18.7-3.4-38.6-6-59.2-8.2V52c20.5,2.1,40.2,4.8,58.8,8.1
	l7.6,1.4c38.4,7.3,72.9,16.7,101.5,24.8c17.7,5.2,34.1,10,49.9,14.6l20.2,6c41.6,12.2,80.8,23.6,130,32.5
	c45.5,7.9,115.8,16.4,187.3,6c50-7.1,90.2-20.8,124.4-34.5c13.9-5.7,27.1-11.1,40-16.5c44-18.4,90.1-37.7,148.7-48.2
	c53.6-9,109.3-7.6,155.1-6.5V37.2z"/>
<path class="st0" d="M1023.4,33.1c-44.9-0.8-98.4-1.7-150.1,8.2C813.9,52.6,768,73,723.8,92.6c-12.1,5.3-24.3,10.6-37.2,16.3
	c-34.3,14.3-74.9,29.3-125.9,36.7c-71.6,10.6-141.6,2-186.7-6.6c-47.6-9.1-85.5-20.7-125.7-33.2l-19.6-6.1
	C211.7,94.4,194,89,174.6,83c-28.2-8.3-62.4-18.1-102.3-25.9C49.6,52.6,25.5,49,0,46.4v2.4c21,2.1,41.3,4.8,60.4,8.3l11.4,2.2
	C111.4,67,145.4,76.7,173.5,85c19.3,5.9,37,11.4,54.1,16.6l19.6,6.1c40.3,12.5,78.4,24.2,126.4,33.4c45.4,8.5,116.1,17.4,188.5,6.6
	c51.5-7.5,92.2-22.7,126.7-37.1c12.9-5.7,25.1-11,37.1-16.3c39.4-17.4,80.4-35.5,130.8-47.2c5.5-1.4,11.1-2.6,17-3.6
	c51.5-9.8,105.1-8.8,149.8-7.9V33.1z"/>
<path class="st0" d="M1023.4,28.9c-43.7-0.5-95.2-0.8-144.9,9.7c-59.3,11.9-104.8,33.3-148.7,53.9c-11,5.5-22.4,10.3-34.5,16
	c-34.6,15.4-75.6,31.6-128,39.5c-72.2,10.9-142.6,2-187.7-7.2c-46.6-9.4-83.6-21.4-122.8-34.2l-18.7-6.1
	c-18.2-5.9-37-11.9-57.8-18.6c-26.3-8.1-61.7-18.6-102.5-26.9C53.6,49.9,27.5,46.1,0,43.5v2.2c22,2.1,43.2,4.9,63.1,8.5
	c4.8,0.9,9.5,1.8,14.2,2.7c40.6,8.2,75.8,18.6,102,26.7c20.7,6.7,39.5,12.7,57.7,18.6l18.7,6.1c39.3,12.9,76.5,25,123.4,34.4
	c45.6,9.2,116.6,18.3,189.6,7.3c52.8-8,94.1-24.4,128.8-39.9c12-5.6,23.2-10.8,34.4-16c39.6-18.6,80.8-37.9,131.8-50.1
	c4.9-1.1,9.9-2.1,15-3.2c49.6-10.5,101-9.9,144.6-9.3V28.9z"/>
<path class="st0" d="M1023.4,24.6c-42.5-0.2-91.8,0.5-139.9,11.1c-59,12.9-104.1,35-147.6,56.7c-10.3,5.2-20.7,10.5-32,15.7
	c-34.7,16.5-76.2,33.9-129.8,42.3c-72.8,11.2-143.6,1.9-188.8-7.9c-45.8-9.7-82-22.2-120.2-35.3l-15.3-5.3
	c-19-6.4-40.5-13.7-63.7-21.5c-26-8.4-61.3-19.2-102.8-27.8C57.5,47.2,29.5,43.1,0,40.4v2.2c29.3,2.7,57.1,6.7,82.8,12.1
	C124,63.3,159,74.1,184.9,82.4c23.1,7.8,44.6,15.1,63.6,21.5c5.1,1.8,10.2,3.5,15.3,5.3c38.4,13.2,74.8,25.7,120.9,35.5
	c45.7,9.8,117.1,19.2,190.8,7.9c54.1-8.5,95.8-26,130.7-42.7c11.3-5.2,21.7-10.6,31.9-15.7c39.8-19.8,81-40.2,132.7-53.1
	c4.3-1,8.7-2,13.1-3c32-7.1,63.4-9.8,94.2-10.2c15.5-0.7,30.8-0.7,45.4-0.6V24.6z"/>
<path class="st0" d="M1023.4,20.4c-39.2,0.2-87.9,1.8-134.9,12.4C830,46.9,785.1,69.5,742,92.4c-9.6,4.8-19.2,10.4-29.7,15.4
	c-34.8,17.7-76.7,35.7-131.4,44.8c-77.5,12.4-152.9,0-189.9-8.3c-45.2-10.1-80.7-22.9-118.3-36.5c-5.7-2.1-11.4-4.1-17.2-6.3
	c-20.5-7.4-40.8-14.8-63.7-22.4c-38.3-12.8-70.2-21.8-103.1-28.8l-20.1-4C46.2,42.2,23.1,39.4,0,37.4v2.2c23,2,45.9,4.7,68.3,8.9
	l19.9,3.9c32.6,6.9,64.2,15.8,102.4,28.6c22.8,7.6,43,14.9,63.5,22.4c5.8,2.1,11.5,4.2,17.2,6.3c37.7,13.7,73.4,26.5,119,36.7
	c37.3,8.4,113.5,21,191.9,8.4c55.3-9.2,97.4-27.5,132.4-45.3c10.3-5.4,20-10.4,29.6-15.4c42.6-22.7,87-45.2,144.7-59
	c46.8-10.5,95.5-11.9,134.5-12V20.4z"/>
<path class="st0" d="M1023.4,16.4c-9.6,0.2-19.7,0.4-30.1,0.8c-31.3,1.7-65.5,4.1-99.8,12.7l-9.6,2.7
	c-53.5,14.7-95.4,37.3-135.7,59.7c-9,4.9-18,9.9-27.6,15.1c-34.9,18.3-76.9,37.9-132.9,47.4c-78.1,13.2-153.9-0.2-191-8.8
	C352,135.4,317,122.3,280,108.3c-6.2-2.4-12.4-4.7-18.7-7.1c-20.5-7.7-40.8-15.5-63.6-23.3C174,69.6,137.6,57.6,94.4,48.1
	C63.7,41.2,31.8,36.8,0,34.2v2.2c31.6,2.5,63.2,6.9,93.7,13.9c42.9,9.4,79.1,21.4,102.5,29.5c22.8,7.8,43,15.5,63.4,23.3
	c6.3,2.4,12.5,4.8,18.7,7.2c37.2,14.1,72.3,27.3,117.5,37.9c37.4,8.7,114,22.3,193.1,8.9c56.6-9.6,98.8-29.4,133.9-47.9
	c9.5-5.2,18.6-10.2,27.5-15.1c39.8-22.3,81.3-44.7,134.1-59.2l9.5-2.6c33.9-8.5,67.7-10.9,98.7-12.4c10.7-0.3,21-0.6,30.8-0.7V16.4z
	"/>
<path class="st0" d="M1023.4,12.3c-8.1,0.2-16.4,0.5-25,0.9c-31.3,1.9-65.7,4.4-100,13.8l-8.1,2.2c-54,15.6-95.8,39.4-136.2,63
	c-8.4,4.8-16.8,9.5-25.6,14.6c-34.9,19.4-77,40.2-134.1,50.2c-78.7,13.9-154.9-0.3-192-9.3c-44.3-10.9-78.8-24.3-115.2-38.8
	c-6.7-2.7-13.4-5.4-20.3-8.1c-18.2-7.2-39.6-15.7-63.5-24.3C166,63.1,133,53.3,99.9,45.8C67.3,38.3,33.6,33.7,0,31.2v2.3
	c33.4,2.5,66.9,7,99.2,14.5c32.9,7.4,65.6,17.1,102.7,30.4c23.9,8.5,45.2,17,63.3,24.2c6.9,2.7,13.6,5.4,20.3,8.1
	c36.6,14.6,71.3,28.1,115.9,39c37.6,9.1,114.6,23.5,194.3,9.4C653.5,149,695.9,128,731,108.4c8.9-5.1,17.2-9.9,25.6-14.6
	c39.9-23.3,81.2-47.1,134.4-62.4l7.9-2.2c33.8-9.3,67.9-11.6,98.8-13.5c8.8-0.4,17.4-0.6,25.7-0.9V12.3z"/>
<path class="st0" d="M1023.4,8.1c-6.5,0.3-13.2,0.6-20,1.1c-31.7,1.5-65.6,5-100.1,14.8l-6.6,1.8C842.1,42,800.6,67.3,760.3,92
	c-7.7,5-15.6,9.3-24,14.4c-34.8,20.5-77,42.4-135.1,52.9c-79.4,14.4-156-0.4-193.1-9.8c-44-11.2-78-25-114-40
	c-7.1-3-14.2-5.9-21.5-9c-19.1-7.9-40.1-16.5-63.5-25.2c-37-13.7-70-23.8-103.7-31.6C70.9,35.4,35.2,30.7,0,28.3v2.2
	c25.8,1.8,51.8,4.7,77.4,9.6l27.3,5.6c33.5,7.7,66.2,17.7,102.9,31.4c23.3,8.6,44.2,17.2,63.2,25.1c7.3,3,14.4,6,21.5,8.9
	c36.2,15.1,70.4,29,114.7,40.3c37.6,9.6,115.1,24.5,195.5,9.9c58.7-10.6,101.2-32.8,136.2-53.5c8.4-5,16.3-9.5,23.9-14.4
	C802.5,69,843.5,44,897.4,28l6.5-1.8c34-9.7,67.6-13,99-14.6c7-0.4,13.9-0.8,20.6-1V8.1z"/>
<path class="st0" d="M1023.4,4.1c-5,0.3-10,0.5-15.1,0.9c-31.6,1.9-65.5,5.8-100,16.2l-5.2,1.5c-55.2,16.7-96.5,43.2-136.8,69
	c-7.1,4.7-14.5,9.5-22.1,14.1c-34.7,21.6-77,44.7-136.1,55.7c-80.1,14.7-157-0.4-194.3-10.3c-43.6-11.5-77.3-25.9-112.9-41.2
	c-7.4-3.2-15-6.5-22.7-9.8c-17.7-7.7-39.1-16.8-63.4-26.1C178,59.8,145,49.4,110.9,41.4C101.1,39,91,37,81,35.2
	C54.1,30,26.9,27,0,25.3v2.3c26.7,1.7,53.8,4.7,80.6,9.8c9.9,1.9,19.9,3.8,29.7,6.2c33.8,7.9,66.5,18.3,103.1,32.3
	c24.2,9.3,45.5,18.4,63.2,26c7.7,3.3,15.2,6.6,22.6,9.8c35.7,15.5,69.6,29.9,113.6,41.5c37.7,10.1,115.6,25.4,196.7,10.4
	c59.8-11.3,102.4-34.5,137.3-56.3c7.7-4.5,14.9-9.5,22.1-14.1c39.7-25.6,80.5-51.8,134.9-68.3l5.1-1.4
	c34.1-10.3,67.6-14.1,98.9-15.9c5.3-0.4,10.5-0.7,15.7-0.9V4.1z"/>
</svg>
