<svg width="118" height="117" viewBox="0 0 118 117" fill="none" xmlns="http://www.w3.org/2000/svg">
<mask id="mask0_144_18" style="mask-type:luminance" maskUnits="userSpaceOnUse" x="0" y="0" width="118" height="117">
<path d="M117.41 0H0V116.89H117.41V0Z" fill="white"/>
</mask>
<g mask="url(#mask0_144_18)">
<path d="M78.3673 7.70725C79.3868 9.04257 81.3761 9.24027 82.9394 9.47111C84.3622 9.66967 86.2078 10.3924 87.5824 9.87132C88.0312 9.70118 88.2128 9.1083 87.9189 8.72779C87.0379 7.53243 85.1042 7.14258 83.804 6.53392C82.3753 5.86707 80.5741 4.9243 79.0113 5.48467C78.1323 5.81787 77.7865 6.96494 78.3557 7.73304L78.3673 7.70725Z" fill="white"/>
<path d="M42.1552 3.05097C13.4033 6.50703 -2.89266 43.7518 1.80063 70.238C4.38898 84.7958 12.1797 98.0124 24.1234 106.724C34.375 114.217 49.7423 120.027 62.4047 116.671C62.6865 116.596 62.8697 116.43 63.0142 116.247C86.0979 116.458 108.146 98.3364 114.394 76.3114C120.593 54.4656 114.396 24.7743 94.314 11.6614C92.6106 10.5532 90.8765 12.665 92.3529 14.1052C92.9003 14.6463 93.4511 15.1968 94.0043 15.725C93.558 16.2685 93.4463 17.1022 94.1838 17.8065C104.483 27.7089 107.936 45.5642 108.21 59.0956C108.244 60.6229 110.732 60.7275 110.87 59.1996C111.549 51.6807 110.734 44.0865 108.425 36.8662C107.463 33.8511 106.228 30.9295 104.799 28.0917C107.635 32.1604 109.911 36.6128 111.368 41.782C114.305 52.2936 113.917 62.6964 111.484 73.2331C108.634 85.5748 103.178 95.3322 92.9103 102.861C84.0291 109.393 73.6189 113.5 62.6264 114.18C62.4739 114.089 62.3121 114 62.1283 113.995C60.9257 113.841 59.7396 113.703 58.5722 113.557C67.4969 113.628 76.4643 111.245 84.1789 106.77C98.814 98.2914 105.779 85.5768 109.345 69.424C109.776 67.4854 106.575 66.9128 106.324 68.901C104.593 82.7006 94.1817 97.0743 82.2454 103.813C69.0649 111.248 54.0082 111.138 39.7168 107.037C38.4995 106.675 38.0229 108.578 39.0922 109.114C40.8814 109.997 42.7439 110.734 44.627 111.357C41.0332 110.538 37.532 109.427 34.0512 107.806C35.2657 108.019 36.3945 106.511 35.1904 105.62C32.1099 103.333 28.9339 101.19 25.9663 98.7216C23.8567 96.9653 21.9523 94.9601 19.9244 93.1088C19.8948 92.6922 19.7598 92.2514 19.4504 91.8019C8.9108 76.7506 4.43655 59.4748 11.6946 41.8902C11.9801 41.2045 11.5311 40.6689 10.984 40.5234C11.6249 40.4087 12.2209 39.8085 11.916 39.0044C11.3843 37.6018 9.22432 38.4206 9.75603 39.8232C9.90845 40.2253 10.1796 40.4326 10.5052 40.5017C10.2514 40.5658 10.0109 40.7211 9.85638 41.0471C6.92509 47.1098 5.18014 54.0168 4.79089 61.0302C4.56494 41.0531 14.7408 20.5016 32.0742 11.5246C26.7789 15.0185 22.0901 19.5765 18.3713 25.0287C17.4434 26.4178 19.3018 27.9912 20.4137 26.6928C27.2579 18.7083 35.8397 12.9098 45.5 8.88409C55.5775 4.68955 65.7953 5.35059 76.2704 7.59311C77.3433 7.82804 77.9014 6.14064 76.9156 5.71228C76.9598 5.3212 76.8074 4.91912 76.3677 4.69012C66.085 -0.373794 52.9589 -1.96428 42.2848 2.96975C42.2287 2.99102 42.1832 3.04034 42.1342 3.08031L42.1458 3.05452L42.1552 3.05097Z" fill="white"/>
<path d="M109.062 64.7829C109.997 64.8241 110.628 64.061 110.594 63.1541C110.567 62.4905 110.571 61.8796 110.424 61.2399C110.155 60.1336 108.553 60.281 108.152 61.1707C107.878 61.7452 107.792 62.4197 107.656 63.0487C107.445 63.9308 108.241 64.7624 109.091 64.8039L109.065 64.7923L109.062 64.7829Z" fill="white"/>
</g>
<path d="M17.8605 83.6684C28.6438 71.1755 40.4713 59.8061 54.3573 50.7311C54.7145 50.4961 55.0322 50.2105 55.7214 49.6835C54.7316 49.4739 54.1324 49.3555 53.5413 49.2166C51.8407 48.8102 50.1122 48.4758 48.434 47.9656C44.3398 46.7263 41.1322 44.6339 40.6492 39.8596C40.5451 38.8143 39.9944 37.8218 39.5869 36.6124C40.2259 36.6278 40.6106 36.5512 40.9481 36.6576C50.8895 39.8348 61.1152 40.3366 71.4015 39.4131C77.9173 38.8294 84.3812 37.6463 90.884 36.8211C91.482 36.7438 92.4255 37.119 92.7457 37.5911C93.7615 39.0938 94.6503 40.6955 94.0105 42.6842C93.8678 43.1141 94.0338 43.7398 94.251 44.1722C95.1079 45.8562 94.4217 46.4671 92.7569 46.7781C88.1125 47.6329 84.5328 50.0625 81.3371 53.6097C73.3367 62.491 67.2014 72.3625 63.7586 83.8383C63.6915 84.0726 63.535 84.2784 63.4124 84.5032C59.5171 82.1697 57.2943 76.7846 58.9693 72.8707C60.9039 68.3473 63.2434 63.9856 65.411 59.5636C65.6275 59.1266 65.8749 58.7016 66.1661 58.1633" fill="white"/>
</svg>
