<svg width="67" height="79" viewBox="0 0 67 79" fill="none" xmlns="http://www.w3.org/2000/svg">
<g clip-path="url(#clip0_202_23)">
<path d="M0.0143095 39.6349C0.0143095 29.3245 0.0318894 19.0171 0.00258956 8.70677C-0.00327041 5.95403 1.04566 3.71137 3.09373 1.97295C4.61146 0.68306 6.40461 4.04933e-06 8.46146 4.04933e-06C25.0159 0.0175935 41.5703 0.0175935 58.1218 4.04933e-06C61.6026 -0.00292752 64.1429 1.58598 65.8452 4.51462C66.5895 5.79865 66.9909 7.25271 66.9909 8.78006C66.9909 29.3744 67.0172 49.9686 66.9645 70.56C66.9557 74.0222 65.3003 76.6811 62.2238 78.4225C61.4239 78.8739 60.6269 78.9648 59.7714 78.9648C54.2542 78.9707 48.7341 78.9707 43.217 78.9707C31.4238 78.9707 19.6306 78.9443 7.8403 79C6.05594 79.0088 4.51184 78.6101 3.18748 77.4697C1.90415 76.3645 0.767316 75.0893 0.427438 73.3655C0.184249 72.1343 0.0230995 70.862 0.0201695 69.6072C-0.0120604 59.6165 0.00258956 49.6257 0.00258956 39.6349H0.0143095ZM33.4191 76.9157C41.6201 76.9157 49.8211 76.8951 58.0251 76.9244C61.6085 76.9362 64.4154 74.1072 64.4213 70.6949C64.4359 60.1441 64.433 49.5934 64.4213 39.0427C64.4213 38.6176 64.3539 38.1251 64.1312 37.7821C63.2932 36.4922 62.0978 35.5834 60.6123 35.2199C59.3465 34.9121 58.031 34.7362 56.7271 34.6453C50.6914 34.2114 44.6585 33.6457 38.6169 33.4786C33.0851 33.3261 27.5386 33.5343 22.0068 33.7571C17.7437 33.93 13.4952 34.4196 9.23498 34.6805C7.71724 34.7743 6.27569 35.0294 4.96306 35.774C3.59768 36.5508 2.41397 37.4977 2.4169 39.3036C2.42569 49.6579 2.44034 60.0151 2.4169 70.3695C2.40811 74.0691 5.32051 76.9626 8.96542 76.9362C17.1166 76.8746 25.2708 76.9157 33.4249 76.9157H33.4191ZM2.47257 26.7975C2.80073 26.5982 2.96481 26.5043 3.12303 26.3988C4.4298 25.5516 5.84205 24.9594 7.39201 24.8187C12.1064 24.3907 16.8178 23.8395 21.5409 23.6343C30.4686 23.2474 39.405 23.1213 48.3269 23.8777C52.0948 24.1972 55.8686 24.4786 59.6307 24.8421C61.125 24.9858 62.5139 25.5399 63.7327 26.4369C64.2308 26.8034 64.3715 26.5952 64.4125 26.1086C64.4242 25.962 64.4242 25.8154 64.4242 25.6688C64.4242 20.0021 64.4154 14.3325 64.4183 8.66573C64.4183 7.53708 64.1195 6.49344 63.5452 5.54067C62.2326 3.35372 60.2431 2.43321 57.7321 2.43321C41.3974 2.44493 25.0628 2.43907 8.72809 2.442C5.20625 2.442 2.44327 5.22993 2.41983 8.77713C2.38174 14.4439 2.40811 20.1135 2.41104 25.7802C2.41104 26.0617 2.44034 26.3431 2.46378 26.7946L2.47257 26.7975ZM2.42276 34.6219C2.78315 34.4694 2.93258 34.4372 3.04392 34.3551C4.74917 33.0593 6.77672 32.6636 8.81306 32.5053C14.4562 32.0714 20.1082 31.6756 25.763 31.4206C29.7595 31.2388 33.7707 31.1626 37.7672 31.3092C43.9582 31.5349 50.1434 31.9747 56.3286 32.3528C58.9363 32.5111 61.5411 32.7251 63.765 34.3463C64.1429 34.6219 64.4037 34.4372 64.4096 34.0297C64.4242 32.86 64.4154 31.6874 64.3568 30.5177C64.3422 30.2304 64.14 29.9284 63.9613 29.6763C62.719 27.9174 60.9141 27.1258 58.8572 26.9236C54.9955 26.5395 51.1338 26.1262 47.2633 25.9298C39.1912 25.5164 31.1132 25.3845 23.0323 25.7861C21.5204 25.8623 20.0056 25.8711 18.4967 25.9884C15.262 26.2434 12.0243 26.4956 8.80134 26.862C7.58832 26.9998 6.34601 27.2929 5.23555 27.7854C3.375 28.6092 2.13855 29.9577 2.41397 32.2326C2.50187 32.9655 2.42862 33.7189 2.42862 34.6189L2.42276 34.6219Z" fill="black"/>
<path d="M18.5117 20.6647C15.9011 20.6647 13.2905 20.7028 10.6799 20.653C8.37982 20.609 5.93621 18.3048 5.80436 15.9888C5.69302 14.0423 5.69888 12.084 5.78092 10.1374C5.88347 7.67197 8.44721 5.20652 10.9963 5.22118C15.9011 5.24756 20.8059 5.2974 25.7107 5.19186C28.3447 5.13616 31.1898 7.56057 31.1956 10.1228C31.2015 12.2159 31.2103 14.312 31.0989 16.3993C30.9905 18.3722 28.3506 20.7937 26.0535 20.6881C24.7907 20.6295 23.5161 20.7644 22.2474 20.782C21.0022 20.8025 19.757 20.7849 18.5146 20.7849V20.6618L18.5117 20.6647ZM18.2832 18.8413C20.7004 18.7123 23.3843 18.6009 26.0594 18.4162C27.8056 18.296 28.9571 17.1234 29.0245 15.3908C29.089 13.7579 29.086 12.1162 29.0216 10.4833C28.9513 8.77424 27.7412 7.61627 26.0183 7.48142C24.9958 7.40227 23.9732 7.32604 22.9506 7.27034C18.8487 7.04168 14.7496 7.14429 10.6593 7.5166C9.25881 7.64265 8.06045 8.92375 8.01943 10.3104C7.97255 11.9931 8.02822 13.6817 7.98427 15.3644C7.93739 17.1263 9.59283 18.3869 10.9934 18.4543C13.3315 18.5657 15.6726 18.7005 18.2832 18.8413Z" fill="black"/>
<path d="M48.3418 20.6677C45.7546 20.6677 43.1645 20.7469 40.5832 20.6443C38.4531 20.5593 36.9412 19.3661 36.1179 17.4166C35.8132 16.6984 35.6579 15.8775 35.6227 15.0977C35.5553 13.5382 35.6403 11.9756 35.6227 10.4131C35.6081 9.25219 36.0446 8.21735 36.7215 7.37892C37.703 6.16818 38.9746 5.2506 40.6359 5.24473C45.737 5.22128 50.8352 5.25939 55.9363 5.22421C58.3155 5.20662 61.1517 7.72484 61.0316 10.2812C60.9466 12.131 60.9612 13.9896 61.014 15.8394C61.0843 18.2961 58.1045 20.7879 55.8806 20.697C53.3726 20.5974 50.8557 20.6736 48.3418 20.6736V20.6677ZM48.3184 7.08576C45.8074 7.21768 43.2729 7.32908 40.7414 7.48739C39.2237 7.5812 37.9784 8.72158 37.8905 10.2196C37.7909 11.9434 37.8817 13.6789 37.8349 15.4085C37.7909 17.0678 39.4932 18.4632 41.1077 18.4778C44.7174 18.5072 48.3271 18.6537 51.9369 18.686C53.2993 18.6977 54.6647 18.5453 56.0242 18.4192C57.4042 18.2902 58.3975 17.443 58.7227 16.1179C59.2032 14.1655 59.1564 12.1808 58.8253 10.2284C58.5176 8.41083 57.4247 7.56654 55.5876 7.46687C53.1763 7.33788 50.762 7.21768 48.3184 7.08869V7.08576Z" fill="black"/>
</g>
<defs>
<clipPath id="clip0_202_23">
<rect width="67" height="79" fill="white"/>
</clipPath>
</defs>
</svg>
