<svg width="43" height="79" viewBox="0 0 43 79" fill="none" xmlns="http://www.w3.org/2000/svg">
<g clip-path="url(#clip0_202_27)">
<path d="M42.9971 39.7533C42.9971 50.3191 42.9885 60.8848 43.0029 71.4506C43.0086 74.8065 41.5531 77.24 38.6363 78.7628C38.276 78.9502 37.8005 78.9561 37.3768 78.9561C30.5084 78.9707 23.6401 78.9707 16.7688 78.9737C13.215 78.9737 9.65836 78.9034 6.10457 79C4.07836 79.0557 2.78712 77.9487 1.61117 76.5636C0.391984 75.1228 0.00864669 73.3892 0.00864669 71.5238C0.0144112 50.3191 0.0172934 29.1144 0 7.90968C0 4.53028 1.51894 2.13776 4.40981 0.623771C5.09002 0.269432 5.92298 0.082013 6.68966 0.0585856C9.28078 -0.0175533 11.8777 0.00587407 14.4717 0.00587407C21.4582 1.7229e-05 28.4476 0.0175878 35.437 1.72283e-05C38.5354 -0.00583961 40.7317 1.4818 42.1901 4.1613C42.8127 5.30632 43 6.59189 43 7.90968C42.9914 18.5252 42.9942 29.1378 42.9942 39.7533H42.9971ZM2.46719 54.7468H2.47295C2.47295 60.4309 2.45566 66.115 2.4816 71.7961C2.49601 74.7597 4.69227 76.9794 7.60044 76.9853C16.8668 76.9999 26.1332 76.9853 35.3996 76.9853C38.2904 76.9853 40.5703 74.6455 40.5789 71.7288C40.6193 60.3636 40.602 48.9954 40.5876 37.6273C40.5876 37.2612 40.4608 36.863 40.2878 36.535C39.2416 34.5407 37.4373 33.6798 35.365 33.4367C33.2465 33.1878 31.105 33.0853 28.9693 33.0209C22.418 32.8218 15.8667 32.7134 9.32113 33.2932C7.80508 33.4279 6.32073 33.5392 4.9632 34.3358C3.45579 35.2231 2.39802 36.2656 2.4326 38.2833C2.52483 43.7711 2.46431 49.259 2.46431 54.7468H2.46719ZM21.4524 2.43354C16.9389 2.43354 12.4224 2.39839 7.91172 2.46282C6.98365 2.47453 5.96622 2.67367 5.15631 3.11C3.35203 4.08224 2.44413 5.67823 2.45854 7.83062C2.49601 13.0022 2.47007 18.1738 2.47007 23.3454C2.47007 23.9809 2.45854 24.6134 2.4816 25.2489C2.50178 25.7701 2.66895 25.9312 3.20792 25.6383C4.06683 25.1727 4.94591 24.6251 5.87687 24.4494C8.01837 24.0511 10.1887 23.6909 12.359 23.6119C19.6539 23.3483 26.9489 23.2312 34.2323 23.9545C36.1893 24.1507 38.0743 24.4201 39.7633 25.5388C40.4348 25.9839 40.6077 25.8521 40.6077 25.0029C40.6077 19.3422 40.6049 13.6845 40.5991 8.02389C40.5962 4.80848 38.3221 2.38668 35.0652 2.41889C30.5286 2.46575 25.9891 2.43061 21.4496 2.43061L21.4524 2.43354ZM20.1843 25.5183C17.0167 25.7086 12.3244 25.9546 7.63503 26.2826C5.84805 26.4085 4.32046 27.2226 3.12434 28.5961C2.04927 29.8318 2.55942 31.3283 2.55077 32.731C2.55077 32.7603 3.06669 32.9038 3.21657 32.8042C4.88826 31.6797 6.77324 31.2433 8.71875 31.0852C17.351 30.3912 25.9833 30.561 34.6156 31.1174C36.2758 31.2258 37.8754 31.6738 39.3597 32.4703C40.5933 33.1351 40.6049 33.1468 40.5905 31.6738C40.5818 30.9505 40.6654 30.1569 40.406 29.5214C39.8497 28.1597 38.7631 27.1933 37.3768 26.8068C35.9328 26.4027 34.4311 26.0981 32.941 26.0073C29.2056 25.7848 25.4616 25.7086 20.1843 25.5154V25.5183Z" fill="black"/>
<path d="M21.5245 20.6923C18.9565 20.6923 16.3913 20.6893 13.8232 20.6923C11.5866 20.6952 8.87443 18.2588 8.93207 15.9102C8.97819 13.9657 8.99548 12.0183 8.92343 10.0738C8.83696 7.74573 11.5174 5.22436 13.9126 5.2185C18.3281 5.20971 22.7408 5.16579 27.1564 5.20093C28.341 5.20971 29.5977 5.23607 30.6929 5.63141C32.6211 6.32544 33.9268 7.81015 34.0853 9.9479C34.2352 11.9832 34.2842 14.0506 34.0853 16.0771C33.8403 18.5867 31.5691 20.5781 29.2259 20.6806C27.9317 20.7391 26.6347 20.7831 25.3406 20.8036C24.0695 20.8241 22.7985 20.8094 21.5245 20.8094V20.6923ZM22.3172 7.0839C19.7376 7.2069 16.8351 7.32403 13.9356 7.48803C12.3504 7.57588 11.1168 8.74139 11.013 10.3842C10.9064 12.0564 10.8949 13.749 11.0044 15.4182C11.1283 17.2631 12.2812 18.3642 14.0913 18.4432C17.328 18.5838 20.5676 18.698 23.8073 18.7214C25.5798 18.7332 27.3582 18.5692 29.1279 18.4227C30.6699 18.2939 31.8775 17.1665 31.9669 15.6173C32.0735 13.8222 32.0649 12.0095 31.9755 10.2115C31.9063 8.80581 30.5949 7.61102 29.1855 7.51145C27.0065 7.35625 24.8247 7.23618 22.3143 7.07805L22.3172 7.0839Z" fill="black"/>
</g>
<defs>
<clipPath id="clip0_202_27">
<rect width="43" height="79" fill="white"/>
</clipPath>
</defs>
</svg>
