<svg width="54" height="55" viewBox="0 0 54 55" fill="none" xmlns="http://www.w3.org/2000/svg">
<path d="M25.1852 15.0708C25.1852 15.0708 23.9515 16.2423 23.9303 19.6714V23.2568H19.4607V28.326H23.9303V41.425H29.0838V28.326H33.5181L34.1385 23.2568H29.0838V19.6714C29.0979 19.2739 29.2741 17.506 31.3468 17.5415H34.3641V12.7634H29.8451C29.8451 12.7634 27.004 12.6924 25.1922 15.0637L25.1852 15.0708Z" fill="#2D70B2"/>
<path d="M45.6157 43.9106C44.8754 44.1307 44.4665 44.9613 44.1141 45.6003C43.7968 46.1825 43.1835 46.8641 43.1835 47.5456C43.1835 47.7657 43.4091 47.9432 43.6206 47.8793C44.2762 47.6947 44.7626 46.9209 45.235 46.4594C45.7567 45.9482 46.4546 45.3234 46.4687 44.5567C46.4687 44.1236 46.0316 43.7828 45.6086 43.9035L45.6157 43.9106Z" fill="#2D70B2"/>
<path d="M53.5186 28.9933C56.7193 15.9724 43.3598 2.80241 31.2058 0.487905C24.5225 -0.782945 17.5714 0.424007 11.8751 4.16556C6.98246 7.36753 1.97001 13.0757 1.35667 19.1034C1.34257 19.2383 1.38487 19.3448 1.44127 19.437C-2.41501 29.398 1.78671 41.9218 10.2395 48.2477C18.6218 54.5167 32.4043 56.7106 41.3224 50.1646C42.0767 49.6108 41.4493 48.5104 40.5892 48.9151C40.2649 49.0642 39.9406 49.2133 39.6233 49.3624C39.4612 49.0784 39.1228 48.8938 38.6998 49.0997C32.7638 51.9325 24.5225 50.4983 18.657 48.3968C17.9943 48.1625 17.5432 49.2204 18.1776 49.5327C21.3007 51.0592 24.6988 51.9538 28.1814 52.1383C29.6337 52.2164 31.093 52.1596 32.5453 52.0105C30.3316 52.5714 28.0475 52.827 25.5871 52.6069C20.5887 52.1525 16.1755 50.2782 12.0443 47.4951C7.20101 44.2364 3.89462 40.2676 2.32955 34.5878C0.968924 29.6677 0.898426 24.4849 2.40005 19.6145C2.4635 19.5648 2.52694 19.508 2.56219 19.4299C2.82304 18.933 3.07683 18.4431 3.33063 17.9603C1.84311 21.8155 1.40602 26.0895 2.07575 30.1647C3.33768 37.8963 7.6663 43.001 14.0323 47.1969C14.7937 47.701 15.5621 46.4089 14.7514 45.9758C9.09742 42.9584 4.61371 36.093 3.66197 29.8168C2.61154 22.8875 5.11425 16.3842 9.21022 10.8677C9.56271 10.3991 8.82247 9.88083 8.42063 10.2571C7.7509 10.889 7.13051 11.5706 6.55242 12.2876C7.49005 10.8677 8.54048 9.53294 9.80241 8.29049C9.51336 8.78037 9.97865 9.51874 10.5567 9.14246C12.0443 8.184 13.4824 7.16164 15.0264 6.28127C16.1261 5.6565 17.2964 5.15952 18.4244 4.58444C18.6077 4.64124 18.8192 4.65544 19.0659 4.59154C27.2579 2.49712 35.4146 3.39879 41.7947 9.42645C42.0414 9.66074 42.3446 9.55424 42.4997 9.34125C42.4433 9.63944 42.6054 9.99442 43.0002 9.99442C43.6911 9.99442 43.6911 8.92237 43.0002 8.92237C42.8028 8.92237 42.6689 9.00756 42.5843 9.13536C42.5984 9.01466 42.5631 8.88687 42.4574 8.76617C40.3283 6.50137 37.6423 4.61284 34.6884 3.29229C43.3175 6.47297 50.4942 14.2543 51.5306 23.2354C50.889 20.3671 49.6976 17.5911 47.9563 15.0849C47.5121 14.453 46.5322 14.9997 46.9058 15.6955C49.2253 19.9695 50.318 24.6411 50.4731 29.4831C50.6352 34.5381 48.6824 38.8548 46.0105 43.0223C45.7356 43.4483 46.3701 43.9666 46.7155 43.6116C46.8777 43.6968 47.075 43.6968 47.2442 43.5406C51.1005 39.9197 53.9205 34.4955 53.5398 29.0643C53.5398 29.0359 53.5257 29.0075 53.5186 28.9791V28.9933Z" fill="#2D70B2"/>
<path d="M16.0626 47.8438C15.8934 48.2414 16.119 48.639 16.5138 48.7738C16.8028 48.8732 17.0637 48.9726 17.3668 49.0152C17.8885 49.0791 18.0859 48.3621 17.7686 48.0426C17.5642 47.8296 17.2893 47.6805 17.0425 47.5172C16.6971 47.2829 16.2106 47.4888 16.0555 47.8509L16.0626 47.8438Z" fill="#2D70B2"/>
</svg>
