<svg width="52" height="52" viewBox="0 0 52 52" fill="none" xmlns="http://www.w3.org/2000/svg">
<path d="M31.0417 12.1343H20.6821C16.0875 12.1343 12.369 15.8858 12.369 20.5062V30.939C12.369 35.5661 16.0942 39.3109 20.6821 39.3109H31.0417C35.6363 39.3109 39.3548 35.5594 39.3548 30.939V20.5062C39.3548 15.8791 35.6296 12.1343 31.0417 12.1343ZM36.7666 29.9355C36.7666 33.6735 33.757 36.7044 30.0452 36.7044H21.6719C17.9601 36.7044 14.9506 33.6735 14.9506 29.9355V21.503C14.9506 17.7649 17.9601 14.7341 21.6719 14.7341H30.0452C33.757 14.7341 36.7666 17.7649 36.7666 21.503V29.9355Z" fill="#2D70B2"/>
<path d="M26.2263 18.6064C22.3005 18.6064 19.1171 21.8124 19.1171 25.766C19.1171 29.7196 22.3005 32.9255 26.2263 32.9255C30.1521 32.9255 33.3356 29.7196 33.3356 25.766C33.3356 21.8124 30.1521 18.6064 26.2263 18.6064ZM26.2263 30.0698C23.8655 30.0698 21.9461 28.1435 21.9461 25.766C21.9461 23.3884 23.8588 21.4554 26.2263 21.4554C28.5938 21.4554 30.4999 23.3817 30.4999 25.766C30.4999 28.1502 28.5872 30.0698 26.2263 30.0698Z" fill="#2D70B2"/>
<path d="M32.8408 16.6733C31.8443 16.6733 31.035 17.4883 31.035 18.4918C31.035 19.4954 31.8443 20.3104 32.8408 20.3104C33.8373 20.3104 34.6465 19.4954 34.6465 18.4918C34.6465 17.4883 33.8373 16.6733 32.8408 16.6733Z" fill="#2D70B2"/>
<path d="M43.2672 41.6775C42.5649 41.8863 42.177 42.6743 41.8426 43.2805C41.5417 43.8328 40.9598 44.4794 40.9598 45.1259C40.9598 45.3347 41.1738 45.5031 41.3745 45.4425C41.9965 45.2674 42.4579 44.5332 42.906 44.0955C43.4009 43.6105 44.063 43.0178 44.0764 42.2904C44.0764 41.8796 43.6618 41.5563 43.2605 41.6708L43.2672 41.6775Z" fill="#2D70B2"/>
<path d="M50.771 27.5257C53.8073 15.1734 41.1337 2.67953 29.6037 0.483852C23.2635 -0.721752 16.6692 0.423234 11.2654 3.97269C6.62398 7.01701 1.87556 12.4254 1.28702 18.1503C1.27364 18.2783 1.31377 18.3793 1.36727 18.4669C-2.29103 27.9164 1.69499 39.7973 9.71381 45.7984C17.6658 51.7456 30.7406 53.8268 39.1942 47.6169C39.9098 47.0916 39.3146 46.0476 38.4986 46.4315C38.191 46.5729 37.8833 46.7144 37.5824 46.8558C37.4286 46.5864 37.1075 46.4113 36.7063 46.6066C31.075 49.294 23.2569 47.9335 17.6925 45.9398C17.0638 45.7176 16.6358 46.7211 17.2377 47.0175C20.2005 48.4655 23.424 49.3142 26.7279 49.4893C28.1056 49.5634 29.49 49.5095 30.8677 49.3681C28.7677 49.9001 26.6008 50.1426 24.2667 49.9338C19.525 49.5028 15.3383 47.7247 11.4192 45.0845C6.82462 41.993 3.68798 38.228 2.20326 32.8398C0.912491 28.1723 0.845615 23.2556 2.27014 18.6353C2.33033 18.5881 2.39052 18.5342 2.42396 18.4601C2.67142 17.9887 2.91218 17.524 3.15294 17.066C1.74179 20.7232 1.32714 24.7778 1.96249 28.6438C3.15963 35.9784 7.26602 40.8211 13.3052 44.8016C14.0275 45.2798 14.7565 44.054 13.9874 43.6431C8.62368 40.7807 4.37015 34.2677 3.46728 28.3138C2.47078 21.7402 4.845 15.5707 8.73068 10.3375C9.06508 9.89295 8.36284 9.40128 7.98163 9.75825C7.34627 10.3577 6.75774 11.0043 6.20933 11.6845C7.09882 10.3375 8.09533 9.07125 9.29246 7.89259C9.01826 8.35732 9.45966 9.05778 10.0081 8.70082C11.4192 7.79156 12.7836 6.82169 14.2482 5.98652C15.2915 5.39383 16.4017 4.92236 17.4718 4.37681C17.6457 4.43069 17.8463 4.44416 18.0804 4.38354C25.8518 2.39665 33.5897 3.25203 39.6423 8.97023C39.8763 9.19249 40.1639 9.09146 40.3111 8.8894C40.2575 9.17228 40.4114 9.50904 40.7859 9.50904C41.4413 9.50904 41.4413 8.49203 40.7859 8.49203C40.5986 8.49203 40.4716 8.57285 40.3913 8.69408C40.4047 8.57958 40.3779 8.45835 40.2709 8.34385C38.2512 6.19532 35.7031 4.40375 32.9008 3.151C41.0869 6.16838 47.8952 13.5502 48.8783 22.0702C48.2697 19.3492 47.1394 16.7157 45.4875 14.3382C45.0662 13.7388 44.1365 14.2574 44.491 14.9174C46.6913 18.972 47.728 23.4038 47.8751 27.9972C48.0289 32.7927 46.1764 36.8877 43.6416 40.8413C43.3808 41.2454 43.9827 41.7371 44.3104 41.4003C44.4643 41.4811 44.6515 41.4811 44.812 41.3329C48.4703 37.898 51.1455 32.7523 50.7843 27.5998C50.7843 27.5729 50.771 27.546 50.7643 27.519L50.771 27.5257Z" fill="#2D70B2"/>
<path d="M15.2313 45.4088C15.0708 45.786 15.2848 46.1632 15.6593 46.2911C15.9335 46.3854 16.181 46.4797 16.4685 46.5201C16.9635 46.5807 17.1507 45.9005 16.8498 45.5974C16.6558 45.3953 16.395 45.2539 16.1609 45.099C15.8332 44.8767 15.3717 45.0721 15.2246 45.4155L15.2313 45.4088Z" fill="#2D70B2"/>
</svg>
