<svg width="84" height="42" viewBox="0 0 84 42" fill="none" xmlns="http://www.w3.org/2000/svg">
<g clip-path="url(#clip0_202_30)">
<path d="M41.9761 38.6858C31.1763 38.6858 20.3791 38.6858 9.57929 38.6858C8.64846 38.6858 8.62968 38.7019 8.63504 39.6115C8.64041 40.6444 8.57066 40.7169 7.55935 40.7169C6.53195 40.7169 5.50186 40.6981 4.47445 40.7249C3.95136 40.7383 3.72603 40.5371 3.76358 40.022C3.77163 39.9334 3.76358 39.8422 3.76358 39.7537C3.76627 38.7207 3.76358 38.7422 2.76837 38.6671C1.25811 38.5517 -0.00267825 37.3711 4.27275e-06 35.3294C0.00536932 29.3113 4.26509e-06 23.2933 0.00805183 17.2779C0.00805183 16.8594 0.0724324 16.4328 0.155591 16.0196C0.415795 14.7559 1.49149 13.8356 2.7791 13.7578C3.09027 13.739 3.40681 13.7229 3.71798 13.7578C4.38325 13.8302 4.53347 13.5083 4.5737 12.8965C4.66223 11.5416 4.64077 10.1303 5.03242 8.85321C5.63062 6.90264 6.7546 5.21233 8.39362 3.90033C9.58734 2.94517 10.9474 2.31198 12.3181 1.69756C12.8386 1.46414 13.4287 1.34877 13.9974 1.27096C15.5157 1.06705 17.0421 0.78533 18.5684 0.766549C23.397 0.702156 28.2255 0.742402 33.0567 0.742402C44.2804 0.745085 55.5041 0.712889 66.7277 0.788013C68.8308 0.801429 70.9044 1.35145 72.8546 2.23953C74.9953 3.21347 76.7657 4.63011 77.9621 6.66385C78.9118 8.27904 79.4241 10.0391 79.4107 11.9441C79.4 13.6451 79.4295 13.68 81.1061 13.7417C82.8417 13.8034 84.0166 15.2496 84.0327 17.0284C84.0863 23.1135 84.0944 29.1986 84.0327 35.2811C84.0139 37.0545 83.0938 38.6644 80.7868 38.6697C80.3576 38.6697 80.2074 38.8602 80.194 39.2815C80.1484 40.7062 80.135 40.7062 78.6864 40.7088C77.8602 40.7088 77.0286 40.6632 76.2051 40.7249C75.5613 40.7732 75.3816 40.4727 75.3467 39.9227C75.2635 38.6778 75.2555 38.6805 73.9679 38.6805C63.3022 38.6805 52.6391 38.6805 41.9734 38.6805L41.9761 38.6858ZM72.0525 19.7758C72.0525 18.7912 72.0901 17.8065 72.0445 16.8245C71.9748 15.3166 73.4689 13.6451 75.0892 13.7417C75.7786 13.7819 76.476 13.7336 77.1681 13.7578C77.7744 13.7793 78.0587 13.5056 78.0024 12.9153C77.93 12.1399 77.7744 11.3672 77.7422 10.5918C77.6912 9.36566 77.1949 8.30587 76.5806 7.29973C75.7303 5.90724 74.5473 4.86354 73.1256 4.0479C71.7548 3.26177 70.2606 2.82175 68.753 2.51857C67.5191 2.27173 66.2154 2.32807 64.9439 2.32807C49.632 2.31734 34.3202 2.31198 19.0084 2.33612C17.3291 2.33612 15.6552 2.30393 13.984 2.83517C12.4228 3.33153 10.9447 3.88155 9.61953 4.85817C6.84044 6.90801 6.03836 9.8191 5.97935 13.0656C5.9713 13.5324 6.2315 13.7524 6.69826 13.7497C7.34743 13.7444 7.99929 13.8061 8.64309 13.7417C10.5182 13.5539 12.0258 15.3569 11.9426 16.9855C11.8433 18.9495 11.9238 20.9215 11.9131 22.8881C11.9104 23.4194 12.0687 23.6501 12.632 23.4355C13.6648 23.0438 14.7002 22.6494 15.7491 22.3006C16.4412 22.0698 17.1494 21.8444 17.8683 21.7398C19.6763 21.4769 21.4977 21.3078 23.3084 21.0556C26.1358 20.6612 28.9364 21.0556 31.7262 21.3776C33.4564 21.5788 35.141 22.1315 36.8525 22.5018C38.5666 22.872 40.1037 23.6206 41.5791 24.5436C41.7669 24.6616 42.1129 24.6992 42.3087 24.608C43.1698 24.2109 43.9746 23.6877 44.8491 23.3362C46.0348 22.8613 47.2526 22.4428 48.4839 22.1074C49.4657 21.8418 50.4931 21.7452 51.4991 21.5627C54.2084 21.0664 56.9392 20.7632 59.6915 20.9805C61.7785 21.1442 63.8601 21.4313 65.9337 21.7291C66.7626 21.8471 67.5754 22.1127 68.3748 22.3703C69.3834 22.695 70.3787 23.0679 71.3712 23.4408C71.9023 23.6421 72.0633 23.4328 72.0579 22.9284C72.0499 21.8766 72.0552 20.8249 72.0552 19.7758H72.0525ZM41.9412 37.3631C54.7288 37.3604 67.5164 37.3631 80.304 37.3577C81.7418 37.3577 82.5493 36.5689 82.5519 35.155C82.5573 29.1825 82.5546 23.2101 82.5493 17.2404C82.5493 15.872 81.8143 15.1556 80.4381 15.153C78.9413 15.1476 77.4364 15.2308 75.9449 15.1288C74.381 15.0242 73.3536 16.0035 73.3697 17.6965C73.4126 21.7881 73.375 25.8824 73.4019 29.9767C73.4072 30.6072 73.257 30.8245 72.5864 30.8219C52.1751 30.8058 31.7664 30.8058 11.3551 30.8219C10.722 30.8219 10.5638 30.626 10.5665 30.0143C10.5933 25.8529 10.5584 21.6942 10.596 17.5328C10.6094 16.084 9.54442 15.0403 8.19511 15.1261C6.68217 15.2227 5.15581 15.1503 3.63482 15.1583C2.11383 15.1664 1.43515 15.8318 1.43247 17.3504C1.42711 23.2772 1.4432 29.204 1.41369 35.1335C1.40833 36.1074 1.73023 36.797 2.62351 37.1377C3.04467 37.296 3.52752 37.355 3.98087 37.355C16.6343 37.3658 29.2878 37.3631 41.9412 37.3631ZM26.4872 29.3811V29.365C31.1575 29.365 35.8278 29.3569 40.498 29.3757C41.0533 29.3757 41.217 29.1316 41.2196 28.662C41.2223 28.0583 41.174 27.452 41.2196 26.851C41.2652 26.2741 41.0265 25.8609 40.5597 25.649C39.1729 25.0158 37.7806 24.3826 36.3509 23.8621C35.4844 23.5455 34.5455 23.4194 33.6308 23.2396C32.4532 23.0089 31.2728 22.6735 30.0845 22.6279C27.52 22.5286 24.9475 22.5393 22.3803 22.6037C21.208 22.6333 20.0358 22.8694 18.8715 23.0572C18.04 23.1913 17.1923 23.3255 16.3983 23.5965C15.0409 24.0606 13.7157 24.6214 12.3933 25.1768C12.1974 25.2599 11.9587 25.5336 11.948 25.7268C11.9024 26.7759 11.9158 27.8276 11.9292 28.8767C11.9319 29.2094 12.0874 29.3891 12.4764 29.3864C17.1467 29.3757 21.817 29.3784 26.4845 29.3784L26.4872 29.3811ZM57.4543 29.3703V29.3784C62.1245 29.3784 66.7921 29.373 71.4624 29.3864C71.9318 29.3864 72.0499 29.1477 72.0525 28.7693C72.0579 27.7847 72.066 26.8027 72.0391 25.818C72.0338 25.6222 71.9292 25.3136 71.787 25.2546C70.6308 24.7555 69.472 24.2538 68.2809 23.854C67.4252 23.5669 66.5185 23.4113 65.6279 23.2369C64.4288 23.0035 63.2271 22.7003 62.0146 22.6172C60.2575 22.4964 58.4844 22.4696 56.7219 22.5393C54.8334 22.6145 52.9476 22.8264 51.0645 23.0303C50.2276 23.1216 49.3745 23.253 48.5805 23.5187C47.0488 24.0311 45.5358 24.6133 44.0497 25.2438C43.1645 25.6195 42.5368 26.2392 42.746 27.3661C42.8265 27.7981 42.7514 28.2569 42.7567 28.705C42.7621 29.1503 42.923 29.3811 43.4435 29.3811C48.1137 29.3623 52.7813 29.3703 57.4516 29.3703H57.4543ZM6.22346 38.6858C5.78352 38.651 5.3114 38.5892 5.34895 39.3432C5.38651 40.081 5.44821 40.1213 6.3549 40.1749C7.02016 40.2125 7.18648 39.9415 7.20526 39.3217C7.2294 38.5302 6.71972 38.6885 6.22346 38.6858ZM77.6107 40.1588C78.5362 40.1588 78.5764 40.0944 78.622 39.3566C78.6784 38.4631 78.0534 38.7261 77.5893 38.6778C77.0555 38.6214 76.7738 38.7422 76.7818 39.3861C76.7899 40.073 77.0742 40.2635 77.6134 40.1588H77.6107Z" fill="black" stroke="#1D1D1B" stroke-miterlimit="10"/>
</g>
<defs>
<clipPath id="clip0_202_30">
<rect width="84" height="42" fill="white"/>
</clipPath>
</defs>
</svg>
