<svg width="51" height="51" viewBox="0 0 51 51" fill="none" xmlns="http://www.w3.org/2000/svg">
<path d="M42.2443 40.6861C41.5587 40.8899 41.1801 41.6592 40.8536 42.2509C40.5598 42.7901 39.9918 43.4213 39.9918 44.0525C39.9918 44.2563 40.2007 44.4207 40.3966 44.3615C41.0038 44.1905 41.4543 43.4739 41.8917 43.0465C42.3748 42.5731 43.0212 41.9945 43.0343 41.2844C43.0343 40.8833 42.6295 40.5677 42.2377 40.6795L42.2443 40.6861Z" fill="#2D70B2"/>
<path d="M49.5631 26.8714C52.5272 14.8129 40.1551 2.61629 28.8994 0.47284C22.7101 -0.704082 16.2727 0.413666 10.9974 3.87868C6.46639 6.85058 1.83092 12.1303 1.25638 17.719C1.24333 17.844 1.28251 17.9426 1.33475 18.0281C-2.23652 27.2528 1.65464 38.851 9.4827 44.7093C17.2455 50.5151 30.0093 52.5467 38.2617 46.4846C38.9603 45.9717 38.3793 44.9526 37.5827 45.3274C37.2824 45.4655 36.9821 45.6035 36.6883 45.7416C36.5381 45.4786 36.2248 45.3077 35.833 45.4984C30.3358 48.1218 22.7036 46.7936 17.2716 44.8474C16.6579 44.6304 16.24 45.6101 16.8276 45.8994C19.7199 47.313 22.8668 48.1415 26.092 48.3124C27.437 48.3848 28.7884 48.3322 30.1334 48.1941C28.0833 48.7135 25.968 48.9502 23.6894 48.7464C19.0605 48.3256 14.9734 46.5898 11.1476 44.0124C6.66226 40.9945 3.60025 37.3191 2.15085 32.0591C0.890786 27.5026 0.825481 22.7029 2.21612 18.1924C2.27488 18.1464 2.33365 18.0938 2.36629 18.0215C2.60786 17.5612 2.84289 17.1076 3.07793 16.6605C1.70035 20.2307 1.29556 24.1888 1.9158 27.9629C3.08446 35.123 7.09315 39.8504 12.9887 43.7362C13.6938 44.2031 14.4054 43.0064 13.6546 42.6054C8.41851 39.811 4.26617 33.453 3.38478 27.6407C2.41199 21.2235 4.72972 15.2008 8.52296 10.092C8.8494 9.65809 8.16388 9.17812 7.79174 9.52659C7.1715 10.1118 6.59697 10.743 6.0616 11.407C6.92994 10.092 7.90272 8.85595 9.07138 7.70533C8.8037 8.159 9.2346 8.8428 9.76997 8.49432C11.1475 7.6067 12.4794 6.6599 13.9092 5.8446C14.9277 5.266 16.0115 4.80576 17.0561 4.27318C17.2259 4.32578 17.4217 4.33893 17.6503 4.27976C25.2367 2.34014 32.7906 3.17516 38.6992 8.75732C38.9277 8.9743 39.2084 8.87567 39.352 8.67842C39.2998 8.95457 39.45 9.28332 39.8156 9.28332C40.4554 9.28332 40.4554 8.2905 39.8156 8.2905C39.6328 8.2905 39.5087 8.3694 39.4304 8.48775C39.4434 8.37597 39.4173 8.25762 39.3129 8.14585C37.3412 6.04843 34.8537 4.29948 32.1181 3.07653C40.1094 6.02213 46.7557 13.2283 47.7155 21.5457C47.1213 18.8894 46.018 16.3186 44.4054 13.9976C43.994 13.4124 43.0865 13.9187 43.4326 14.563C45.5805 18.5212 46.5925 22.8475 46.7361 27.3317C46.8863 32.0131 45.0778 36.0106 42.6034 39.8702C42.3488 40.2647 42.9364 40.7446 43.2563 40.4159C43.4064 40.4948 43.5893 40.4948 43.7459 40.3501C47.3172 36.9969 49.9287 31.9736 49.5762 26.9437C49.5762 26.9174 49.5631 26.8911 49.5566 26.8648L49.5631 26.8714Z" fill="#2D70B2"/>
<path d="M14.8754 44.3206C14.7187 44.6888 14.9276 45.057 15.2932 45.1819C15.5609 45.2739 15.8025 45.366 16.0832 45.4055C16.5664 45.4646 16.7492 44.8005 16.4554 44.5047C16.266 44.3074 16.0114 44.1694 15.7829 44.0181C15.463 43.8012 15.0125 43.9918 14.8689 44.3272L14.8754 44.3206Z" fill="#2D70B2"/>
<path d="M8.7841 24.986C9.01914 24.2299 9.60675 23.8551 10.2923 23.5921C12.8646 22.6058 15.437 21.6262 18.0159 20.6399C23.7221 18.4636 29.4282 16.2873 35.1279 14.111C35.598 13.9334 36.0746 13.7888 36.5904 13.8545C37.6219 13.9926 38.3205 14.7487 38.2944 15.8139C38.2813 16.4648 38.1311 17.1157 38.0006 17.7535C36.7993 23.6315 35.5914 29.5096 34.3836 35.3811C34.2922 35.8282 34.2204 36.2752 34.0963 36.7092C33.8156 37.6823 33.2476 38.3727 32.1965 38.5305C31.5109 38.6357 30.9168 38.3792 30.3619 37.9979C28.5599 36.7486 26.7579 35.4994 24.9495 34.2502C24.8646 34.191 24.7797 34.1318 24.6753 34.0661C23.9245 34.7762 23.1802 35.4797 22.4359 36.1832C22.018 36.5843 21.5479 36.8999 20.9669 36.9919C19.9157 37.1694 19.0082 36.6171 18.5512 35.5388C18.2378 34.7893 17.9179 34.0463 17.598 33.3034C16.9908 31.8963 16.3706 30.4893 15.7699 29.0756C15.6851 28.8784 15.5741 28.7666 15.3782 28.6943C13.6546 28.0631 11.9375 27.4253 10.2139 26.7941C9.55451 26.5508 9.01915 26.1892 8.77759 25.4923V24.9728L8.7841 24.986ZM21.5806 29.7989C21.6589 29.8581 21.7047 29.8975 21.7569 29.937C24.9299 32.1396 28.1029 34.3356 31.2759 36.5317C32.0006 37.0314 32.3075 36.8933 32.4903 36.0122C32.9995 33.5335 33.5088 31.0547 34.018 28.5759C34.8537 24.4863 35.6959 20.3967 36.5251 16.307C36.5708 16.0966 36.512 15.8599 36.4989 15.6364C36.2704 15.6627 36.0224 15.6364 35.8134 15.7218C27.6132 18.845 19.413 21.9747 11.2194 25.1043C11.1475 25.1306 11.0823 25.1701 10.9908 25.2161C11.0496 25.249 11.0692 25.2687 11.0953 25.2753C12.7406 25.8802 14.3924 26.4917 16.0442 27.09C16.1682 27.136 16.351 27.1097 16.4685 27.044C18.1138 26.1695 19.7525 25.2753 21.3913 24.3942C24.1791 22.8886 26.9734 21.3763 29.7677 19.8772C29.9701 19.7655 30.2443 19.7129 30.4794 19.7392C30.8189 19.7786 31.0343 20.0219 31.1192 20.3638C31.2106 20.732 31.0735 21.0279 30.8058 21.2711C29.4152 22.5533 28.0311 23.8354 26.6404 25.1175C24.9625 26.6692 23.2846 28.2209 21.5806 29.7923V29.7989ZM19.2302 32.705L19.3216 32.6919C19.3216 31.8043 19.3282 30.9166 19.3216 30.0224C19.3216 29.6674 19.4457 29.3978 19.7068 29.1611C21.2411 27.7541 22.7688 26.3404 24.2966 24.9268C24.3553 24.8742 24.4337 24.8413 24.5055 24.7953L24.4337 24.723C22.0964 25.9854 19.759 27.2478 17.4152 28.5168L19.2302 32.705ZM21.0452 35.118L23.2128 33.0667L21.0452 31.561V35.118Z" fill="#2D70B2"/>
</svg>
