<svg width="52" height="53" viewBox="0 0 52 53" fill="none" xmlns="http://www.w3.org/2000/svg">
<path d="M32.2223 28.7608C31.8014 28.5215 31.4212 28.3027 30.946 28.0634C30.5319 27.8652 30.0499 27.5643 29.5747 27.7011C29.2285 27.8036 28.9773 28.125 28.7397 28.3848C28.4342 28.7198 28.1219 29.0479 27.8096 29.3761C27.8096 29.3761 23.7567 27.9199 22.657 24.898C22.8131 24.7134 22.9692 24.5288 23.1254 24.3511C23.3833 24.0366 23.7771 23.7358 23.7975 23.2982C23.811 22.8743 23.6617 22.4504 23.5055 22.0608C23.4105 21.8146 23.3087 21.5685 23.2068 21.3155C23.0303 20.8643 22.8063 20.2285 22.5551 19.9687C22.2157 19.6132 21.6386 19.5448 21.1838 19.7704C21.1838 19.7704 18.5362 21.0831 19.378 23.6469C19.378 23.6469 21.0276 30.887 29.018 32.3022C29.018 32.3022 31.8829 32.6851 32.6364 30.928C32.7994 30.552 32.908 30.0187 32.874 29.6085C32.8401 29.212 32.5618 28.9454 32.2359 28.7608H32.2223ZM25.9563 12.3047C18.4751 12.3799 12.467 18.5398 12.5417 26.0739C12.5689 28.6172 13.2817 30.9964 14.5037 33.0201L12.8608 39.9731L19.6292 37.9426C21.5843 39.0091 23.8314 39.6107 26.2143 39.5902C33.6955 39.515 39.7035 33.3551 39.6288 25.821C39.5542 18.2869 33.4375 12.2363 25.9563 12.3115V12.3047ZM26.3432 37.3204C23.974 37.3409 21.7744 36.6231 19.955 35.3856L16.099 36.5478L17.0494 32.5278C15.7732 30.7093 15.0128 28.501 14.9924 26.1081C14.9313 19.8525 19.9211 14.7317 26.1328 14.677C32.3445 14.6155 37.4293 19.6405 37.4836 25.8962C37.5447 32.1518 32.555 37.2725 26.3432 37.3272V37.3204Z" fill="#2D70B2"/>
<path d="M43.9195 42.2986C43.2067 42.5105 42.813 43.3104 42.4735 43.9257C42.168 44.4863 41.5774 45.1427 41.5774 45.799C41.5774 46.0109 41.7946 46.1818 41.9983 46.1203C42.6296 45.9426 43.0981 45.1973 43.5529 44.753C44.0553 44.2607 44.7274 43.6591 44.741 42.9207C44.741 42.5037 44.3201 42.1755 43.9127 42.2917L43.9195 42.2986Z" fill="#2D70B2"/>
<path d="M51.5365 27.9336C54.6185 15.395 41.7539 2.71278 30.05 0.483994C23.6143 -0.739787 16.9206 0.422463 11.4352 4.02544C6.72385 7.11565 1.90383 12.6056 1.30642 18.4168C1.29284 18.5467 1.33357 18.6493 1.38788 18.7382C-2.32557 28.3301 1.72054 40.3902 9.86026 46.4817C17.9321 52.5186 31.2041 54.6312 39.7851 48.3277C40.5115 47.7944 39.9073 46.7347 39.0791 47.1244C38.7668 47.268 38.4545 47.4115 38.149 47.5551C37.9929 47.2816 37.667 47.1039 37.2597 47.3022C31.5436 50.03 23.6075 48.649 17.9592 46.6253C17.3211 46.3997 16.8866 47.4184 17.4976 47.7192C20.505 49.1891 23.7772 50.0505 27.1309 50.2283C28.5293 50.3035 29.9346 50.2488 31.3331 50.1052C29.2014 50.6453 27.0019 50.8915 24.6326 50.6795C19.8194 50.242 15.5696 48.437 11.5914 45.757C6.92751 42.619 3.74358 38.7972 2.23648 33.3278C0.926248 28.5899 0.858365 23.5991 2.30437 18.9091C2.36547 18.8612 2.42657 18.8065 2.46051 18.7313C2.71169 18.2527 2.95609 17.781 3.20048 17.3161C1.76805 21.0285 1.34715 25.1442 1.99208 29.0685C3.20727 36.5137 7.37557 41.4294 13.5058 45.4699C14.239 45.9553 14.979 44.711 14.1983 44.294C8.75369 41.3883 4.43604 34.7772 3.51955 28.7335C2.50803 22.0608 4.91804 15.7983 8.86231 10.4862C9.20175 10.035 8.48892 9.53587 8.10197 9.89822C7.45703 10.5067 6.85963 11.163 6.30295 11.8535C7.20585 10.4862 8.21738 9.20087 9.43257 8.00443C9.15423 8.47617 9.60228 9.18719 10.159 8.82484C11.5914 7.90188 12.9763 6.91739 14.463 6.06963C15.5221 5.46799 16.649 4.98942 17.7352 4.43564C17.9117 4.49034 18.1154 4.50401 18.353 4.44248C26.2415 2.42564 34.0961 3.2939 40.2399 9.09832C40.4776 9.32393 40.7695 9.22138 40.9188 9.01627C40.8645 9.30342 41.0207 9.64526 41.4008 9.64526C42.0661 9.64526 42.0661 8.61291 41.4008 8.61291C41.2108 8.61291 41.0817 8.69494 41.0003 8.81801C41.0139 8.70178 40.9867 8.57872 40.8781 8.4625C38.8279 6.28157 36.2414 4.46299 33.3969 3.19135C41.7063 6.25422 48.6173 13.7473 49.6152 22.3958C48.9974 19.6338 47.8502 16.9606 46.1733 14.5472C45.7456 13.9387 44.802 14.4652 45.1618 15.1352C47.3953 19.2509 48.4476 23.7495 48.5969 28.4122C48.7531 33.2799 46.8726 37.4367 44.2996 41.4499C44.0349 41.8601 44.6459 42.3592 44.9785 42.0173C45.1347 42.0994 45.3247 42.0994 45.4877 41.949C49.2011 38.4622 51.9166 33.2389 51.55 28.0088C51.55 27.9815 51.5364 27.9541 51.5297 27.9268L51.5365 27.9336Z" fill="#2D70B2"/>
<path d="M15.4609 46.0863C15.2979 46.4692 15.5152 46.852 15.8953 46.9819C16.1737 47.0776 16.4249 47.1733 16.7168 47.2144C17.2191 47.2759 17.4092 46.5854 17.1037 46.2777C16.9069 46.0726 16.6421 45.9291 16.4045 45.7718C16.0718 45.5462 15.6034 45.7445 15.4541 46.0931L15.4609 46.0863Z" fill="#2D70B2"/>
</svg>
